<svg width="149" height="46" viewBox="0 0 149 46" fill="none" xmlns="http://www.w3.org/2000/svg">
<path d="M77.7786 18.2225H72.804C72.7131 17.5789 72.5276 17.0073 72.2474 16.5075C71.9673 16.0002 71.6076 15.5686 71.1684 15.2127C70.7293 14.8569 70.222 14.5843 69.6465 14.395C69.0786 14.2057 68.4615 14.111 67.7952 14.111C66.5913 14.111 65.5426 14.4101 64.6491 15.0083C63.7556 15.5989 63.0628 16.4621 62.5706 17.5979C62.0785 18.7261 61.8324 20.0966 61.8324 21.7094C61.8324 23.3676 62.0785 24.7608 62.5706 25.889C63.0704 27.0172 63.767 27.869 64.6604 28.4445C65.5539 29.02 66.5875 29.3077 67.7611 29.3077C68.4199 29.3077 69.0294 29.2206 69.5897 29.0465C70.1576 28.8723 70.6611 28.6187 71.1003 28.2855C71.5395 27.9448 71.9029 27.5321 72.1906 27.0475C72.4859 26.5629 72.6904 26.0102 72.804 25.3893L77.7786 25.412C77.6499 26.4796 77.3281 27.5094 76.8132 28.5013C76.3059 29.4856 75.6207 30.3677 74.7575 31.1476C73.9019 31.92 72.8797 32.5333 71.6909 32.9876C70.5097 33.4343 69.1733 33.6577 67.6816 33.6577C65.6069 33.6577 63.7518 33.1883 62.1163 32.2493C60.4884 31.3104 59.2012 29.9513 58.2547 28.1719C57.3158 26.3925 56.8463 24.2384 56.8463 21.7094C56.8463 19.1728 57.3233 17.0148 58.2774 15.2354C59.2314 13.4561 60.5262 12.1007 62.1617 11.1694C63.7973 10.2305 65.6372 9.76101 67.6816 9.76101C69.0294 9.76101 70.2787 9.95031 71.4297 10.3289C72.5882 10.7075 73.6141 11.2602 74.5076 11.9871C75.4011 12.7065 76.128 13.5886 76.6883 14.6335C77.2562 15.6784 77.6196 16.8747 77.7786 18.2225ZM89.0966 33.6804C87.3324 33.6804 85.8067 33.3056 84.5195 32.556C83.2398 31.7988 82.2517 30.7463 81.5551 29.3986C80.8585 28.0432 80.5102 26.472 80.5102 24.6851C80.5102 22.883 80.8585 21.3081 81.5551 19.9603C82.2517 18.6049 83.2398 17.5524 84.5195 16.8028C85.8067 16.0456 87.3324 15.667 89.0966 15.667C90.8609 15.667 92.3828 16.0456 93.6624 16.8028C94.9497 17.5524 95.9416 18.6049 96.6382 19.9603C97.3348 21.3081 97.6831 22.883 97.6831 24.6851C97.6831 26.472 97.3348 28.0432 96.6382 29.3986C95.9416 30.7463 94.9497 31.7988 93.6624 32.556C92.3828 33.3056 90.8609 33.6804 89.0966 33.6804ZM89.1194 29.9324C89.922 29.9324 90.5921 29.7052 91.1297 29.2509C91.6673 28.789 92.0724 28.1606 92.345 27.3655C92.6251 26.5705 92.7652 25.6656 92.7652 24.651C92.7652 23.6364 92.6251 22.7316 92.345 21.9365C92.0724 21.1415 91.6673 20.513 91.1297 20.0511C90.5921 19.5892 89.922 19.3583 89.1194 19.3583C88.3092 19.3583 87.6277 19.5892 87.075 20.0511C86.5298 20.513 86.1171 21.1415 85.837 21.9365C85.5644 22.7316 85.4281 23.6364 85.4281 24.651C85.4281 25.6656 85.5644 26.5705 85.837 27.3655C86.1171 28.1606 86.5298 28.789 87.075 29.2509C87.6277 29.7052 88.3092 29.9324 89.1194 29.9324ZM105.804 33.6691C104.691 33.6691 103.699 33.476 102.828 33.0898C101.957 32.6961 101.268 32.1168 100.761 31.3521C100.261 30.5798 100.011 29.6181 100.011 28.4672C100.011 27.498 100.189 26.6841 100.545 26.0253C100.901 25.3666 101.386 24.8365 101.999 24.4352C102.612 24.0339 103.309 23.731 104.089 23.5266C104.876 23.3222 105.702 23.1783 106.565 23.095C107.579 22.989 108.397 22.8906 109.018 22.7997C109.639 22.7013 110.09 22.5574 110.37 22.3681C110.65 22.1788 110.79 21.8987 110.79 21.5276V21.4595C110.79 20.7402 110.563 20.1836 110.108 19.7899C109.662 19.3962 109.026 19.1993 108.2 19.1993C107.33 19.1993 106.637 19.3924 106.122 19.7785C105.607 20.1571 105.266 20.6342 105.1 21.2096L100.625 20.8462C100.852 19.7861 101.299 18.8699 101.965 18.0976C102.631 17.3177 103.491 16.7195 104.543 16.3031C105.603 15.8791 106.83 15.667 108.223 15.667C109.192 15.667 110.12 15.7806 111.006 16.0078C111.899 16.2349 112.69 16.587 113.379 17.064C114.076 17.5411 114.625 18.1544 115.026 18.904C115.428 19.646 115.628 20.5357 115.628 21.5731V33.3397H111.04V30.9205H110.904C110.623 31.4657 110.249 31.9465 109.779 32.3629C109.31 32.7718 108.746 33.0936 108.087 33.3283C107.428 33.5555 106.667 33.6691 105.804 33.6691ZM107.19 30.3299C107.901 30.3299 108.53 30.1898 109.075 29.9097C109.62 29.6219 110.048 29.2358 110.358 28.7512C110.669 28.2666 110.824 27.7176 110.824 27.1043V25.253C110.673 25.3514 110.464 25.4423 110.199 25.5256C109.942 25.6013 109.65 25.6732 109.325 25.7414C108.999 25.8019 108.674 25.8587 108.348 25.9117C108.022 25.9572 107.727 25.9988 107.462 26.0367C106.894 26.12 106.398 26.2525 105.974 26.4342C105.55 26.6159 105.221 26.862 104.986 27.1724C104.751 27.4753 104.634 27.8539 104.634 28.3082C104.634 28.967 104.873 29.4705 105.35 29.8188C105.834 30.1595 106.447 30.3299 107.19 30.3299ZM133.897 20.8689L129.468 21.1415C129.392 20.7629 129.229 20.4221 128.979 20.1193C128.729 19.8088 128.4 19.5627 127.991 19.381C127.59 19.1917 127.109 19.0971 126.549 19.0971C125.799 19.0971 125.167 19.2561 124.652 19.5741C124.137 19.8845 123.88 20.301 123.88 20.8235C123.88 21.2399 124.046 21.592 124.379 21.8797C124.713 22.1675 125.284 22.3984 126.094 22.5725L129.252 23.2086C130.948 23.5569 132.213 24.1172 133.045 24.8895C133.878 25.6619 134.295 26.6765 134.295 27.9334C134.295 29.0768 133.958 30.08 133.284 30.9432C132.618 31.8064 131.701 32.4803 130.535 32.9649C129.377 33.4419 128.04 33.6804 126.526 33.6804C124.217 33.6804 122.377 33.1996 121.006 32.238C119.643 31.2688 118.844 29.9513 118.61 28.2855L123.369 28.0356C123.512 28.7398 123.861 29.2774 124.414 29.6484C124.966 30.0119 125.674 30.1936 126.537 30.1936C127.385 30.1936 128.067 30.0308 128.582 29.7052C129.104 29.3721 129.369 28.9442 129.377 28.4218C129.369 27.9826 129.184 27.623 128.82 27.3428C128.457 27.0551 127.897 26.8355 127.139 26.6841L124.118 26.0821C122.415 25.7414 121.146 25.1508 120.313 24.3103C119.488 23.4698 119.075 22.3984 119.075 21.096C119.075 19.9754 119.378 19.01 119.984 18.1998C120.597 17.3896 121.457 16.765 122.562 16.3258C123.675 15.8866 124.978 15.667 126.469 15.667C128.673 15.667 130.407 16.1327 131.671 17.064C132.943 17.9954 133.685 19.2637 133.897 20.8689ZM146.621 15.8942V19.5287H136.115V15.8942H146.621ZM138.5 11.7145H143.338V27.9788C143.338 28.4256 143.407 28.7739 143.543 29.0237C143.679 29.266 143.868 29.4364 144.111 29.5348C144.361 29.6333 144.648 29.6825 144.974 29.6825C145.201 29.6825 145.428 29.6636 145.655 29.6257C145.883 29.5803 146.057 29.5462 146.178 29.5235L146.939 33.1239C146.696 33.1996 146.356 33.2867 145.917 33.3851C145.477 33.4911 144.944 33.5555 144.315 33.5782C143.149 33.6236 142.127 33.4684 141.249 33.1125C140.378 32.7567 139.7 32.2039 139.216 31.4543C138.731 30.7047 138.492 29.7582 138.5 28.6149V11.7145Z" fill="#0B4C46"/>
<path fill-rule="evenodd" clip-rule="evenodd" d="M0 42.4625V38.892H45.9419V42.4625C45.9419 44.0656 44.6338 45.3737 43.0307 45.3737H2.91122C1.30812 45.3737 0 44.0656 0 42.4625Z" fill="#0B4C46"/>
<path fill-rule="evenodd" clip-rule="evenodd" d="M22.9712 32.4101H45.9424V38.8922H22.9712V32.4101Z" fill="#0B4C46" fill-opacity="0.529412"/>
<path d="M22.9712 25.9277H0V32.4099H22.9712V25.9277Z" fill="#0B4C46"/>
<path d="M45.9424 19.4462H22.9712V25.9284H45.9424V19.4462Z" fill="#0B4C46"/>
<path fill-rule="evenodd" clip-rule="evenodd" d="M22.9712 19.446H45.9424V12.9639H22.9712V19.446Z" fill="#0B4C46" fill-opacity="0.529412"/>
<path d="M22.9712 12.9639H0V19.446H22.9712V12.9639Z" fill="#0B4C46"/>
<path fill-rule="evenodd" clip-rule="evenodd" d="M22.9712 6.48154H2.91122C1.30812 6.48154 0 7.78966 0 9.39275V12.9632H22.9712V6.48154Z" fill="#0B4C46" fill-opacity="0.529412"/>
<path fill-rule="evenodd" clip-rule="evenodd" d="M22.9647 6.48171H39.4538V12.9634H45.9355V6.48171V2.91122C45.9355 1.30812 44.6273 0 43.0243 0H39.4538H22.9647V6.48171Z" fill="#0B4C46"/>
</svg>
