<svg width="80" height="25" viewBox="0 0 80 25" fill="none" xmlns="http://www.w3.org/2000/svg">
<g clip-path="url(#clip0_157_882)">
<path d="M41.4818 10.1858H38.8287C38.7803 9.8426 38.6813 9.53771 38.5319 9.27119C38.3825 9.00063 38.1907 8.77045 37.9565 8.58065C37.7222 8.39085 37.4517 8.24548 37.1448 8.14452C36.8419 8.04357 36.5128 7.99309 36.1574 7.99309C35.5153 7.99309 34.9561 8.1526 34.4795 8.47162C34.003 8.7866 33.6335 9.24696 33.3711 9.85269C33.1086 10.4544 32.9773 11.1853 32.9773 12.0455C32.9773 12.9298 33.1086 13.6729 33.3711 14.2746C33.6376 14.8762 34.0091 15.3305 34.4856 15.6375C34.9621 15.9444 35.5133 16.0978 36.1393 16.0978C36.4906 16.0978 36.8157 16.0514 37.1145 15.9585C37.4174 15.8656 37.6859 15.7303 37.9201 15.5527C38.1543 15.3709 38.3482 15.1508 38.5016 14.8924C38.6591 14.634 38.7681 14.3392 38.8287 14.008L41.4818 14.0201C41.4132 14.5895 41.2416 15.1387 40.967 15.6677C40.6964 16.1927 40.3309 16.6632 39.8706 17.0791C39.4143 17.491 38.8691 17.8181 38.2351 18.0604C37.6051 18.2986 36.8924 18.4178 36.0969 18.4178C34.9904 18.4178 34.001 18.1674 33.1288 17.6667C32.2605 17.1659 31.574 16.4411 31.0693 15.4921C30.5685 14.5431 30.3182 13.3942 30.3182 12.0455C30.3182 10.6926 30.5726 9.54175 31.0814 8.59277C31.5902 7.64378 32.2807 6.92094 33.153 6.42424C34.0252 5.9235 35.0065 5.67313 36.0969 5.67313C36.8157 5.67313 37.482 5.77408 38.0958 5.97599C38.7136 6.17791 39.2608 6.4727 39.7373 6.86037C40.2138 7.244 40.6015 7.71445 40.9003 8.27173C41.2032 8.829 41.397 9.46704 41.4818 10.1858ZM47.518 18.4299C46.5771 18.4299 45.7634 18.23 45.0769 17.8302C44.3944 17.4264 43.8674 16.8651 43.4959 16.1463C43.1244 15.4234 42.9386 14.5855 42.9386 13.6325C42.9386 12.6714 43.1244 11.8314 43.4959 11.1126C43.8674 10.3898 44.3944 9.82846 45.0769 9.42868C45.7634 9.02486 46.5771 8.82295 47.518 8.82295C48.4589 8.82295 49.2706 9.02486 49.953 9.42868C50.6395 9.82846 51.1685 10.3898 51.54 11.1126C51.9116 11.8314 52.0973 12.6714 52.0973 13.6325C52.0973 14.5855 51.9116 15.4234 51.54 16.1463C51.1685 16.8651 50.6395 17.4264 49.953 17.8302C49.2706 18.23 48.4589 18.4299 47.518 18.4299ZM47.5301 16.431C47.9581 16.431 48.3155 16.3098 48.6022 16.0675C48.889 15.8212 49.105 15.486 49.2504 15.062C49.3998 14.638 49.4745 14.1554 49.4745 13.6143C49.4745 13.0732 49.3998 12.5906 49.2504 12.1666C49.105 11.7426 48.889 11.4074 48.6022 11.1611C48.3155 10.9147 47.9581 10.7916 47.5301 10.7916C47.098 10.7916 46.7346 10.9147 46.4398 11.1611C46.149 11.4074 45.9289 11.7426 45.7795 12.1666C45.6341 12.5906 45.5615 13.0732 45.5615 13.6143C45.5615 14.1554 45.6341 14.638 45.7795 15.062C45.9289 15.486 46.149 15.8212 46.4398 16.0675C46.7346 16.3098 47.098 16.431 47.5301 16.431ZM56.4283 18.4238C55.8347 18.4238 55.3057 18.3209 54.8413 18.1149C54.3769 17.9049 54.0094 17.596 53.7389 17.1881C53.4723 16.7762 53.3391 16.2634 53.3391 15.6496C53.3391 15.1327 53.434 14.6986 53.6238 14.3472C53.8136 13.9959 54.072 13.7132 54.3991 13.4992C54.7262 13.2852 55.0977 13.1237 55.5137 13.0146C55.9336 12.9056 56.3738 12.8289 56.8342 12.7844C57.3753 12.7279 57.8114 12.6754 58.1425 12.627C58.4737 12.5745 58.714 12.4977 58.8634 12.3968C59.0128 12.2958 59.0875 12.1464 59.0875 11.9485V11.9122C59.0875 11.5286 58.9663 11.2317 58.7241 11.0218C58.4858 10.8118 58.1466 10.7068 57.7064 10.7068C57.242 10.7068 56.8725 10.8098 56.5979 11.0157C56.3233 11.2176 56.1416 11.472 56.0528 11.7789L53.6662 11.5851C53.7873 11.0197 54.0256 10.5311 54.3809 10.1192C54.7363 9.70328 55.1946 9.38426 55.756 9.16216C56.3213 8.93602 56.9755 8.82295 57.7185 8.82295C58.2354 8.82295 58.7301 8.88352 59.2026 9.00467C59.6791 9.12581 60.1011 9.31359 60.4686 9.568C60.8401 9.82241 61.1329 10.1495 61.3469 10.5493C61.5609 10.945 61.6679 11.4195 61.6679 11.9728V18.2482H59.2208V16.958H59.1481C58.9987 17.2487 58.7988 17.5051 58.5484 17.7272C58.298 17.9453 57.9972 18.1169 57.6458 18.2421C57.2945 18.3633 56.8887 18.4238 56.4283 18.4238ZM57.1673 16.643C57.5469 16.643 57.8821 16.5683 58.1728 16.4189C58.4636 16.2654 58.6917 16.0594 58.8573 15.801C59.0229 15.5426 59.1057 15.2498 59.1057 14.9227V13.9353C59.0249 13.9878 58.9138 14.0363 58.7725 14.0807C58.6352 14.1211 58.4797 14.1595 58.3061 14.1958C58.1325 14.2281 57.9588 14.2584 57.7852 14.2867C57.6115 14.3109 57.454 14.3331 57.3127 14.3533C57.0098 14.3977 56.7453 14.4684 56.5192 14.5653C56.293 14.6622 56.1174 14.7935 55.9922 14.959C55.867 15.1206 55.8044 15.3225 55.8044 15.5648C55.8044 15.9161 55.9316 16.1846 56.186 16.3704C56.4445 16.5521 56.7716 16.643 57.1673 16.643ZM71.4112 11.5972L69.0488 11.7426C69.0084 11.5407 68.9216 11.359 68.7883 11.1974C68.6551 11.0319 68.4794 10.9006 68.2613 10.8037C68.0473 10.7027 67.7909 10.6523 67.4921 10.6523C67.0923 10.6523 66.7551 10.7371 66.4805 10.9067C66.2059 11.0722 66.0686 11.2943 66.0686 11.573C66.0686 11.7951 66.1574 11.9829 66.3351 12.1363C66.5128 12.2898 66.8177 12.4129 67.2498 12.5058L68.9337 12.845C69.8383 13.0308 70.5127 13.3296 70.9569 13.7415C71.4011 14.1534 71.6232 14.6945 71.6232 15.3649C71.6232 15.9746 71.4435 16.5097 71.0841 16.9701C70.7287 17.4304 70.2401 17.7898 69.6182 18.0483C69.0003 18.3027 68.2876 18.4299 67.4799 18.4299C66.2483 18.4299 65.267 18.1735 64.5361 17.6606C63.8092 17.1437 63.3832 16.4411 63.258 15.5527L65.796 15.4194C65.8727 15.7949 66.0585 16.0817 66.3533 16.2795C66.6481 16.4734 67.0256 16.5703 67.486 16.5703C67.9383 16.5703 68.3017 16.4835 68.5763 16.3098C68.855 16.1321 68.9963 15.904 69.0003 15.6253C68.9963 15.3911 68.8974 15.1993 68.7035 15.0499C68.5097 14.8964 68.2109 14.7793 67.807 14.6986L66.1958 14.3775C65.2872 14.1958 64.6108 13.8808 64.1666 13.4326C63.7264 12.9843 63.5063 12.4129 63.5063 11.7184C63.5063 11.1207 63.6679 10.6058 63.9909 10.1737C64.318 9.74164 64.7763 9.40849 65.3659 9.17427C65.9595 8.94005 66.6541 8.82295 67.4497 8.82295C68.6248 8.82295 69.5495 9.0713 70.2239 9.568C70.9023 10.0647 71.2981 10.7411 71.4112 11.5972ZM78.1969 8.94409V10.8824H72.5939V8.94409H78.1969ZM73.8659 6.71499H76.4463V15.3891C76.4463 15.6274 76.4827 15.8131 76.5554 15.9464C76.628 16.0756 76.729 16.1665 76.8582 16.219C76.9915 16.2715 77.1449 16.2977 77.3186 16.2977C77.4397 16.2977 77.5609 16.2876 77.682 16.2674C77.8032 16.2432 77.896 16.225 77.9607 16.2129L78.3665 18.1331C78.2373 18.1735 78.0556 18.2199 77.8213 18.2724C77.5871 18.3289 77.3024 18.3633 76.9673 18.3754C76.3454 18.3996 75.8002 18.3168 75.3318 18.127C74.8674 17.9372 74.506 17.6424 74.2475 17.2427C73.9891 16.8429 73.8619 16.3381 73.8659 15.7283V6.71499Z" fill="#32DAC3"/>
<path fill-rule="evenodd" clip-rule="evenodd" d="M0 22.6465V20.7423H24.5023V22.6465C24.5023 23.5017 23.8048 24.1992 22.9496 24.1992H1.55274C0.697577 24.1992 0 23.5017 0 22.6465Z" fill="#32DAC3"/>
<path fill-rule="evenodd" clip-rule="evenodd" d="M12.251 17.285H24.5021V20.7423H12.251V17.285Z" fill="#32DAC3" fill-opacity="0.529412"/>
<path d="M12.2512 13.8281H0V17.2851H12.2512V13.8281Z" fill="#32DAC3"/>
<path d="M24.5021 10.3712H12.251V13.8281H24.5021V10.3712Z" fill="#32DAC3"/>
<path fill-rule="evenodd" clip-rule="evenodd" d="M12.251 10.3711H24.5021V6.91382H12.251V10.3711Z" fill="#32DAC3" fill-opacity="0.529412"/>
<path d="M12.2512 6.91382H0V10.3708H12.2512V6.91382Z" fill="#32DAC3"/>
<path fill-rule="evenodd" clip-rule="evenodd" d="M12.2512 3.45691H1.55274C0.697577 3.45691 0 4.15449 0 5.00965V6.91384H12.2512V3.45691Z" fill="#32DAC3" fill-opacity="0.529412"/>
<path fill-rule="evenodd" clip-rule="evenodd" d="M12.2471 3.45694H21.0413V6.91387H24.4982V3.45694V1.55274C24.4982 0.697577 23.8007 0 22.9455 0H21.0413H12.2471V3.45694Z" fill="#32DAC3"/>
</g>
<defs>
<clipPath id="clip0_157_882">
<rect width="80" height="24.1993" fill="white"/>
</clipPath>
</defs>
</svg>
