<svg width="116" height="38" viewBox="0 0 116 38" fill="none" xmlns="http://www.w3.org/2000/svg">
<g clip-path="url(#clip0_387_61)">
<path fill-rule="evenodd" clip-rule="evenodd" d="M0.293213 35.5519V32.6314H37.8685V35.5519C37.8685 36.8628 36.7992 37.9328 35.4884 37.9328H2.67334C1.36251 37.9328 0.293213 36.8628 0.293213 35.5519Z" fill="#0B4C46"/>
<path opacity="0.53" d="M37.8693 27.33H19.0805V32.6322H37.8693V27.33Z" fill="#0B4C46"/>
<path d="M19.0805 22.028H0.293213V27.3302H19.0805V22.028Z" fill="#0B4C46"/>
<path d="M37.8693 16.7266H19.0805V22.028H37.8693V16.7266Z" fill="#0B4C46"/>
<path opacity="0.53" d="M37.8693 11.4252H19.0805V16.7273H37.8693V11.4252Z" fill="#0B4C46"/>
<path d="M19.0805 11.4252H0.293213V16.7273H19.0805V11.4252Z" fill="#0B4C46"/>
<path opacity="0.53" fill-rule="evenodd" clip-rule="evenodd" d="M19.0805 6.12299H2.67334C1.36251 6.12299 0.293213 7.19229 0.293213 8.50465V11.4244H19.0805V6.12299Z" fill="#0B4C46"/>
<path fill-rule="evenodd" clip-rule="evenodd" d="M19.0753 6.12297H32.5627V11.4251H37.8641V6.12297V3.20245C37.8641 1.89163 36.7948 0.821564 35.4832 0.821564H32.5635H19.0753V6.12297Z" fill="#0B4C46"/>
</g>
<path d="M51.5387 12.6527C49.3901 12.6527 47.8057 11.0056 47.8057 8.7737C47.8057 6.56326 49.3901 4.90466 51.5387 4.90466C53.2286 4.90466 54.3743 5.83638 54.8421 7.06389L53.448 7.66772C53.1139 6.98211 52.465 6.40962 51.5387 6.40962C50.2981 6.40962 49.3328 7.42237 49.3328 8.7737C49.3328 10.1151 50.2981 11.1584 51.5387 11.1584C52.4941 11.1584 53.1804 10.5745 53.448 9.87893L54.852 10.4927C54.3843 11.7217 53.2385 12.6527 51.5387 12.6527Z" fill="#0B4C46"/>
<path d="M55.4058 9.61281C55.4058 7.95498 56.6081 6.60365 58.298 6.60365C59.988 6.60365 61.191 7.95422 61.191 9.61281C61.191 11.2706 59.988 12.6319 58.298 12.6319C56.6081 12.6319 55.4058 11.2706 55.4058 9.61281ZM56.8657 9.61281C56.8657 10.5231 57.4099 11.2401 58.298 11.2401C59.1954 11.2401 59.7304 10.5231 59.7304 9.61281C59.7304 8.6918 59.1954 7.99549 58.298 7.99549C57.4099 7.99626 56.8657 8.6918 56.8657 9.61281Z" fill="#0B4C46"/>
<path d="M65.6113 11.8548C65.2865 12.3462 64.685 12.6222 63.9497 12.6222C62.7558 12.6222 61.8967 11.9977 61.8967 10.8107C61.8967 9.57248 63.0233 8.94802 64.1117 8.94802C64.5986 8.94802 65.0755 9.01911 65.5716 9.17274C65.5907 8.29223 65.142 7.91388 64.3593 7.91388C63.6332 7.91388 62.8704 8.15999 62.5356 8.3335L62.1825 7.1977C62.6786 6.94165 63.5568 6.60458 64.5688 6.60458C66.2686 6.60458 67.023 7.49503 67.023 9.26522V12.5197H65.6197L65.6113 11.8548ZM65.5731 10.4836V10.0945C65.2299 9.96152 64.8669 9.90038 64.4855 9.90038C63.8641 9.90038 63.3489 10.1763 63.3489 10.6983C63.3489 11.2303 63.8075 11.507 64.3609 11.507C64.9999 11.507 65.5731 11.1692 65.5731 10.4836Z" fill="#0B4C46"/>
<path d="M67.94 11.8952L68.4659 10.8824C68.9436 11.2195 69.7354 11.4755 70.3179 11.4755C70.8437 11.4755 71.1678 11.3533 71.1678 10.9642C71.1678 9.85899 67.9981 10.7808 67.9981 8.45721C67.9981 7.23886 68.9818 6.62511 70.1658 6.62511C70.9859 6.62511 71.683 6.83071 72.2562 7.23962L71.7976 8.2837C71.31 7.98638 70.7092 7.81211 70.194 7.81211C69.8593 7.81211 69.4007 7.9046 69.4007 8.33415C69.4007 9.35759 72.552 8.41593 72.552 10.8213C72.552 12.0083 71.6822 12.6733 70.3844 12.6733C69.3334 12.6733 68.6279 12.4279 67.94 11.8952Z" fill="#0B4C46"/>
<path d="M75.3306 10.6164C75.3306 11.1484 75.6356 11.3226 75.9887 11.3226C76.2753 11.3226 76.5046 11.2202 76.5046 11.2202L76.7339 12.3873C76.7339 12.3873 76.3235 12.6327 75.511 12.6327C74.4898 12.6327 73.8791 12.1107 73.8791 11.0979V8.10938H73.296V7.52543L75.2534 5.4174H75.3306V6.71676H76.4947V8.10861H75.3306V10.6164Z" fill="#0B4C46"/>
<path d="M51.3005 17.747V23.8364H49.7825V17.747H47.8052V16.3452H53.2671V17.747H51.3005Z" fill="#0B4C46"/>
<path d="M53.3436 20.9404C53.3436 18.9034 54.8142 17.9213 56.1219 17.9213C57.7354 17.9213 58.8903 19.0265 58.8903 21.0634C58.8903 21.2476 58.8804 21.4211 58.8621 21.5748H54.8233C54.9579 22.1274 55.4532 22.6701 56.4567 22.6701C57.2768 22.6701 57.8027 22.148 57.8027 22.148L58.5762 22.936C58.5762 22.936 57.8509 23.9495 56.3711 23.9495C54.4695 23.9495 53.3436 22.7618 53.3436 20.9404ZM54.8134 20.5414H57.3907C57.3808 19.9062 56.9612 19.2619 56.1212 19.2619C55.2903 19.2619 54.8325 19.9062 54.8134 20.5414Z" fill="#0B4C46"/>
<path d="M62.4603 17.9213C63.6924 17.9213 64.5897 18.6474 64.9528 19.5585L63.7115 20.121C63.4914 19.6907 63.11 19.3223 62.4702 19.3223C61.6394 19.3223 61.0478 20.0186 61.0478 20.9503C61.0478 21.8813 61.6394 22.5462 62.4702 22.5462C63.1191 22.5462 63.5204 22.1885 63.7298 21.7788L64.9711 22.3322C64.5989 23.2838 63.7298 23.9488 62.4702 23.9488C60.8567 23.9488 59.5963 22.7006 59.5963 20.9503C59.5963 19.2619 60.8659 17.9213 62.4603 17.9213Z" fill="#0B4C46"/>
<path d="M71.1868 20.4085V23.8365H69.7361V20.6439C69.7361 19.7947 69.2676 19.3231 68.5805 19.3231C67.8353 19.3231 67.2819 19.8765 67.2819 20.6538V23.8373H65.8312V15.8951H67.2819V18.9043C67.7206 18.4235 68.3512 17.9321 69.182 17.9321C70.366 17.9313 71.1868 18.8531 71.1868 20.4085Z" fill="#0B4C46"/>
<path d="M77.812 20.4084V23.8364H76.3613V20.6438C76.3613 19.7946 75.8936 19.323 75.2057 19.323C74.4612 19.323 73.9071 19.8764 73.9071 20.6537V23.8372H72.4564V18.0344H73.9071V18.9049C74.3466 18.4242 74.9771 17.9228 75.8072 17.9228C76.9911 17.9212 77.812 18.853 77.812 20.4084Z" fill="#0B4C46"/>
<path d="M78.7673 20.9297C78.7673 19.2718 79.9696 17.9213 81.6596 17.9213C83.3495 17.9213 84.5526 19.2718 84.5526 20.9297C84.5526 22.5875 83.3495 23.9488 81.6596 23.9488C79.9696 23.9488 78.7673 22.5883 78.7673 20.9297ZM80.228 20.9297C80.228 21.8408 80.7722 22.5569 81.6596 22.5569C82.5577 22.5569 83.0919 21.84 83.0919 20.9297C83.0919 20.0087 82.5577 19.3131 81.6596 19.3131C80.7722 19.3131 80.228 20.0087 80.228 20.9297Z" fill="#0B4C46"/>
<path d="M85.5739 15.8951H87.0246V23.8365H85.5739V15.8951Z" fill="#0B4C46"/>
<path d="M88.0471 20.9297C88.0471 19.2718 89.2494 17.9213 90.9401 17.9213C92.6301 17.9213 93.8324 19.2718 93.8324 20.9297C93.8324 22.5875 92.6301 23.9488 90.9401 23.9488C89.2494 23.9496 88.0471 22.5883 88.0471 20.9297ZM89.5078 20.9297C89.5078 21.8408 90.052 22.5569 90.9401 22.5569C91.8375 22.5569 92.3717 21.84 92.3717 20.9297C92.3717 20.0087 91.8375 19.3131 90.9401 19.3131C90.052 19.3131 89.5078 20.0087 89.5078 20.9297Z" fill="#0B4C46"/>
<path d="M100.21 18.0336V23.4581C100.21 25.2489 99.1988 26.2311 97.2223 26.2311C95.981 26.2311 95.1311 25.7908 94.6732 25.4431L95.2274 24.3585C95.6944 24.6657 96.3059 24.9317 97.0977 24.9317C98.1097 24.9317 98.7502 24.4915 98.7502 23.345V23.1302C98.3864 23.611 97.823 23.9381 96.9548 23.9381C95.5507 23.9381 94.5395 22.7419 94.5395 20.9297C94.5395 19.1182 95.5507 17.9213 96.9548 17.9213C97.823 17.9213 98.3864 18.2484 98.7502 18.7391V18.0329L100.21 18.0336ZM98.7785 20.9297C98.7785 20.0087 98.3107 19.3223 97.4225 19.3223C96.5451 19.3223 96.0101 20.0079 96.0101 20.9297C96.0101 21.8308 96.5443 22.5371 97.4225 22.5371C98.3107 22.5371 98.7785 21.8308 98.7785 20.9297Z" fill="#0B4C46"/>
<path d="M102.349 17.4298C101.881 17.4298 101.508 17.0415 101.508 16.5707C101.508 16.1205 101.891 15.7307 102.349 15.7307C102.798 15.7307 103.17 16.0991 103.17 16.5707C103.17 17.0408 102.807 17.4298 102.349 17.4298ZM101.614 18.0337H103.065V23.8364H101.614V18.0337Z" fill="#0B4C46"/>
<path d="M104.153 20.9404C104.153 18.9034 105.624 17.9213 106.932 17.9213C108.545 17.9213 109.701 19.0265 109.701 21.0634C109.701 21.2476 109.691 21.4211 109.673 21.5748H105.633C105.768 22.1274 106.264 22.6701 107.266 22.6701C108.087 22.6701 108.612 22.148 108.612 22.148L109.387 22.936C109.387 22.936 108.661 23.9495 107.18 23.9495C105.28 23.9495 104.153 22.7618 104.153 20.9404ZM105.624 20.5414H108.202C108.191 19.9062 107.772 19.2619 106.932 19.2619C106.101 19.2619 105.642 19.9062 105.624 20.5414Z" fill="#0B4C46"/>
<path d="M110.37 23.212L110.895 22.1993C111.372 22.5371 112.164 22.7924 112.746 22.7924C113.272 22.7924 113.596 22.6694 113.596 22.2811C113.596 21.1759 110.427 22.0969 110.427 19.7741C110.427 18.5557 111.41 17.942 112.594 17.942C113.415 17.942 114.112 18.1468 114.685 18.5557L114.226 19.5998C113.739 19.3033 113.137 19.1297 112.621 19.1297C112.287 19.1297 111.829 19.2215 111.829 19.6518C111.829 20.6752 114.98 19.7336 114.98 22.1382C114.98 23.3259 114.111 23.9909 112.812 23.9909C111.762 23.9901 111.055 23.7448 110.37 23.212Z" fill="#0B4C46"/>
<path d="M51.5871 28.116V32.462H50.6424V30.7041H48.743V32.462H47.8052V28.116H48.743V29.8916H50.6424V28.116H51.5871Z" fill="#02967A"/>
<path d="M52.2613 30.7759C52.2613 29.8144 53.0096 29.0302 54.0605 29.0302C55.1115 29.0302 55.8598 29.8136 55.8598 30.7759C55.8598 31.7382 55.1115 32.5278 54.0605 32.5278C53.0096 32.527 52.2613 31.7375 52.2613 30.7759ZM53.1693 30.7759C53.1693 31.3049 53.5071 31.7199 54.0598 31.7199C54.6177 31.7199 54.9502 31.3049 54.9502 30.7759C54.9502 30.2417 54.6177 29.8381 54.0598 29.8381C53.5079 29.8381 53.1693 30.2417 53.1693 30.7759Z" fill="#02967A"/>
<path d="M56.4927 27.8546H57.3954V32.462H56.4927V27.8546Z" fill="#02967A"/>
<path d="M61.5501 27.8546V32.462H60.6536V32.0462C60.4281 32.3313 60.0773 32.527 59.5315 32.527C58.6526 32.527 58.0289 31.8261 58.0289 30.7751C58.0289 29.7242 58.6518 29.0294 59.5315 29.0294C60.0773 29.0294 60.4281 29.2258 60.6536 29.5102V27.8539L61.5501 27.8546ZM60.665 30.7812C60.665 30.247 60.3685 29.8495 59.822 29.8495C59.2755 29.8495 58.9438 30.2477 58.9438 30.7812C58.9438 31.3041 59.2763 31.7076 59.822 31.7076C60.3677 31.7076 60.665 31.3048 60.665 30.7812Z" fill="#02967A"/>
<path d="M62.8779 28.745C62.5867 28.745 62.3544 28.5196 62.3544 28.2459C62.3544 27.9845 62.5928 27.7598 62.8779 27.7598C63.1562 27.7598 63.3885 27.9731 63.3885 28.2459C63.3885 28.5203 63.163 28.745 62.8779 28.745ZM62.4209 29.0959H63.3243V32.462H62.4209V29.0959Z" fill="#02967A"/>
<path d="M67.5256 30.4732V32.4628H66.6229V30.6101C66.6229 30.1171 66.3317 29.8442 65.9052 29.8442C65.442 29.8442 65.0973 30.1645 65.0973 30.6169V32.4636H64.1946V29.0975H65.0973V29.6019C65.3702 29.3222 65.7615 29.031 66.279 29.031C67.015 29.0302 67.5256 29.5713 67.5256 30.4732Z" fill="#02967A"/>
<path d="M71.6448 29.0958V32.2418C71.6448 33.2805 71.0158 33.8499 69.7867 33.8499C69.014 33.8499 68.4866 33.5954 68.2007 33.3929L68.5447 32.7638C68.8359 32.9419 69.2158 33.0963 69.708 33.0963C70.3371 33.0963 70.736 32.841 70.736 32.1761V32.0515C70.5106 32.3304 70.1597 32.52 69.6193 32.52C68.7465 32.52 68.1174 31.8252 68.1174 30.7743C68.1174 29.7233 68.7465 29.0285 69.6193 29.0285C70.1597 29.0285 70.5106 29.2189 70.736 29.5039V29.095L71.6448 29.0958ZM70.7544 30.7758C70.7544 30.2415 70.4632 29.8433 69.9106 29.8433C69.3641 29.8433 69.0323 30.2415 69.0323 30.7758C69.0323 31.2986 69.3648 31.7083 69.9106 31.7083C70.4632 31.7075 70.7544 31.2986 70.7544 30.7758Z" fill="#02967A"/>
<path d="M72.2537 32.0997L72.5809 31.5119C72.8774 31.7076 73.3696 31.8566 73.7319 31.8566C74.0583 31.8566 74.2609 31.7855 74.2609 31.56C74.2609 30.9188 72.2896 31.453 72.2896 30.1055C72.2896 29.3993 72.9011 29.0423 73.6379 29.0423C74.1477 29.0423 74.5819 29.1608 74.9381 29.3985L74.653 30.0039C74.3503 29.8311 73.9758 29.7302 73.6547 29.7302C73.4476 29.7302 73.1618 29.7837 73.1618 30.0329C73.1618 30.6268 75.1207 30.0803 75.1207 31.476C75.1207 32.1646 74.5811 32.5499 73.7732 32.5499C73.1212 32.5506 72.6817 32.4077 72.2537 32.0997Z" fill="#02967A"/>
<path d="M80.5215 32.462H77.5063V28.116H78.4441V31.648H80.5223L80.5215 32.462Z" fill="#02967A"/>
<path d="M81.5237 28.745C81.2333 28.745 81.0017 28.5196 81.0017 28.2459C81.0017 27.9845 81.2394 27.7598 81.5237 27.7598C81.8027 27.7598 82.0343 27.9731 82.0343 28.2459C82.0343 28.5203 81.8088 28.745 81.5237 28.745ZM81.0674 29.0959H81.9694V32.462H81.0674V29.0959Z" fill="#02967A"/>
<path d="M88.2787 30.438V32.4619H87.3761V30.5557C87.3761 30.1162 87.1032 29.8494 86.7057 29.8494C86.3259 29.8494 86.011 30.1582 86.011 30.6214V32.4619H85.1083V30.5679C85.1083 30.1169 84.8408 29.8494 84.4556 29.8494C84.0405 29.8494 83.7432 30.2538 83.7432 30.6329V32.4619H82.8405V29.0958H83.7432V29.5705C83.9862 29.3029 84.3363 29.0362 84.811 29.0362C85.2741 29.0362 85.6418 29.2678 85.8451 29.6591C86.0943 29.374 86.4864 29.0362 87.068 29.0362C87.7865 29.0362 88.2787 29.5712 88.2787 30.438Z" fill="#02967A"/>
<path d="M89.5645 28.745C89.2741 28.745 89.0417 28.5196 89.0417 28.2459C89.0417 27.9845 89.2794 27.7598 89.5645 27.7598C89.8435 27.7598 90.0751 27.9731 90.0751 28.2459C90.0751 28.5203 89.8496 28.745 89.5645 28.745ZM89.1082 29.0959H90.0109V32.462H89.1082V29.0959Z" fill="#02967A"/>
<path d="M91.975 31.3575C91.975 31.6663 92.1645 31.7672 92.3846 31.7672C92.562 31.7672 92.7049 31.7076 92.7049 31.7076L92.8478 32.3848C92.8478 32.3848 92.5925 32.5269 92.0873 32.5269C91.4529 32.5269 91.073 32.2243 91.073 31.6357V29.9022H90.7108V29.5644L91.9276 28.3407H91.9757V29.0951H92.6995V29.9022H91.9757L91.975 31.3575Z" fill="#02967A"/>
<path d="M93.2079 30.7811C93.2079 29.6002 94.122 29.0293 94.9353 29.0293C95.9388 29.0293 96.6573 29.6706 96.6573 30.8522C96.6573 30.9592 96.6512 31.0601 96.6397 31.1495H94.1289C94.2122 31.4698 94.5202 31.7847 95.1439 31.7847C95.6545 31.7847 95.9809 31.482 95.9809 31.482L96.4624 31.9391C96.4624 31.9391 96.0107 32.5269 95.0912 32.5269C93.9088 32.5269 93.2079 31.8382 93.2079 30.7811ZM94.122 30.5495H95.7248C95.7195 30.1827 95.4573 29.8074 94.9353 29.8074C94.4194 29.8081 94.1343 30.1827 94.122 30.5495Z" fill="#02967A"/>
<path d="M100.616 27.8546V32.462H99.7192V32.0462C99.493 32.3313 99.1429 32.527 98.5964 32.527C97.7174 32.527 97.0945 31.8261 97.0945 30.7751C97.0945 29.7242 97.7166 29.0294 98.5964 29.0294C99.1429 29.0294 99.493 29.2258 99.7192 29.5102V27.8539L100.616 27.8546ZM99.7314 30.7812C99.7314 30.247 99.4341 29.8495 98.8876 29.8495C98.3411 29.8495 98.0094 30.2477 98.0094 30.7812C98.0094 31.3041 98.3419 31.7076 98.8876 31.7076C99.4333 31.7076 99.7314 31.3048 99.7314 30.7812Z" fill="#02967A"/>
<defs>
<clipPath id="clip0_387_61">
<rect width="37.576" height="37.1113" fill="white" transform="translate(0.293182 0.821686)"/>
</clipPath>
</defs>
</svg>
