<svg width="361" height="115" viewBox="0 0 361 115" fill="none" xmlns="http://www.w3.org/2000/svg">
<path d="M168.586 30.3713H163.843C163.756 29.7577 163.58 29.2127 163.313 28.7363C163.045 28.2527 162.703 27.8412 162.284 27.502C161.865 27.1627 161.382 26.9028 160.833 26.7224C160.292 26.5419 159.703 26.4517 159.068 26.4517C157.92 26.4517 156.921 26.7368 156.069 27.3071C155.217 27.8701 154.557 28.693 154.087 29.7758C153.618 30.8513 153.384 32.1578 153.384 33.6953C153.384 35.2761 153.618 36.6043 154.087 37.6799C154.564 38.7554 155.228 39.5675 156.08 40.116C156.932 40.6646 157.917 40.9389 159.036 40.9389C159.664 40.9389 160.245 40.8559 160.779 40.6899C161.32 40.5239 161.8 40.2821 162.219 39.9645C162.638 39.6396 162.984 39.2462 163.258 38.7843C163.54 38.3223 163.735 37.7953 163.843 37.2034L168.586 37.2251C168.463 38.2429 168.156 39.2246 167.665 40.1702C167.182 41.1086 166.528 41.9495 165.705 42.693C164.89 43.4293 163.915 44.014 162.782 44.4471C161.656 44.8729 160.382 45.0859 158.96 45.0859C156.982 45.0859 155.214 44.6383 153.654 43.7433C152.102 42.8482 150.875 41.5525 149.973 39.8562C149.078 38.1599 148.63 36.1063 148.63 33.6953C148.63 31.2772 149.085 29.2199 149.995 27.5236C150.904 25.8273 152.139 24.5352 153.698 23.6474C155.257 22.7523 157.011 22.3048 158.96 22.3048C160.245 22.3048 161.436 22.4852 162.533 22.8461C163.637 23.207 164.615 23.734 165.467 24.427C166.319 25.1127 167.012 25.9536 167.546 26.9498C168.087 27.9459 168.434 29.0864 168.586 30.3713ZM179.375 45.1075C177.693 45.1075 176.239 44.7502 175.012 44.0356C173.792 43.3138 172.85 42.3104 172.186 41.0256C171.522 39.7335 171.19 38.2357 171.19 36.5321C171.19 34.8142 171.522 33.3127 172.186 32.0279C172.85 30.7358 173.792 29.7324 175.012 29.0178C176.239 28.296 177.693 27.9351 179.375 27.9351C181.057 27.9351 182.508 28.296 183.728 29.0178C184.955 29.7324 185.901 30.7358 186.565 32.0279C187.229 33.3127 187.561 34.8142 187.561 36.5321C187.561 38.2357 187.229 39.7335 186.565 41.0256C185.901 42.3104 184.955 43.3138 183.728 44.0356C182.508 44.7502 181.057 45.1075 179.375 45.1075ZM179.397 41.5345C180.162 41.5345 180.801 41.3179 181.313 40.8848C181.826 40.4445 182.212 39.8454 182.472 39.0874C182.739 38.3295 182.872 37.4669 182.872 36.4997C182.872 35.5324 182.739 34.6698 182.472 33.9119C182.212 33.1539 181.826 32.5548 181.313 32.1145C180.801 31.6742 180.162 31.454 179.397 31.454C178.624 31.454 177.975 31.6742 177.448 32.1145C176.928 32.5548 176.535 33.1539 176.268 33.9119C176.008 34.6698 175.878 35.5324 175.878 36.4997C175.878 37.4669 176.008 38.3295 176.268 39.0874C176.535 39.8454 176.928 40.4445 177.448 40.8848C177.975 41.3179 178.624 41.5345 179.397 41.5345ZM195.302 45.0967C194.241 45.0967 193.296 44.9126 192.466 44.5445C191.636 44.1692 190.979 43.617 190.495 42.8879C190.019 42.1516 189.78 41.2349 189.78 40.1377C189.78 39.2138 189.95 38.4378 190.289 37.8098C190.629 37.1818 191.091 36.6765 191.675 36.2939C192.26 35.9114 192.924 35.6226 193.668 35.4277C194.418 35.2328 195.205 35.0957 196.028 35.0163C196.995 34.9152 197.775 34.8214 198.367 34.7348C198.959 34.6409 199.388 34.5038 199.655 34.3233C199.922 34.1429 200.056 33.8758 200.056 33.5221V33.4571C200.056 32.7714 199.839 32.2408 199.406 31.8655C198.98 31.4901 198.374 31.3024 197.587 31.3024C196.757 31.3024 196.097 31.4865 195.606 31.8546C195.115 32.2156 194.79 32.6703 194.631 33.2189L190.365 32.8724C190.582 31.8619 191.008 30.9884 191.643 30.2522C192.278 29.5087 193.097 28.9384 194.101 28.5414C195.111 28.1372 196.281 27.9351 197.609 27.9351C198.533 27.9351 199.417 28.0433 200.261 28.2599C201.113 28.4764 201.868 28.8121 202.524 29.2669C203.189 29.7216 203.712 30.3063 204.094 31.0209C204.477 31.7283 204.668 32.5765 204.668 33.5654V44.7827H200.294V42.4765H200.164C199.897 42.9962 199.54 43.4545 199.092 43.8515C198.645 44.2413 198.107 44.5481 197.479 44.7719C196.851 44.9884 196.125 45.0967 195.302 45.0967ZM196.623 41.9134C197.302 41.9134 197.901 41.7799 198.421 41.5128C198.941 41.2385 199.348 40.8704 199.644 40.4084C199.94 39.9464 200.088 39.4231 200.088 38.8384V37.0735C199.944 37.1673 199.745 37.254 199.493 37.3334C199.247 37.4056 198.969 37.4741 198.659 37.5391C198.349 37.5968 198.038 37.651 197.728 37.7015C197.417 37.7448 197.136 37.7845 196.883 37.8206C196.342 37.9 195.869 38.0263 195.465 38.1996C195.061 38.3728 194.747 38.6074 194.523 38.9034C194.299 39.1921 194.187 39.553 194.187 39.9861C194.187 40.6141 194.415 41.0941 194.869 41.4262C195.331 41.751 195.916 41.9134 196.623 41.9134ZM222.084 32.8941L217.862 33.1539C217.789 32.793 217.634 32.4682 217.396 32.1795C217.158 31.8835 216.844 31.6489 216.454 31.4757C216.071 31.2952 215.613 31.205 215.079 31.205C214.364 31.205 213.762 31.3566 213.271 31.6597C212.78 31.9557 212.535 32.3527 212.535 32.8508C212.535 33.2478 212.693 33.5834 213.011 33.8577C213.329 34.132 213.874 34.3522 214.646 34.5182L217.656 35.1246C219.273 35.4566 220.478 35.9908 221.272 36.727C222.066 37.4633 222.463 38.4306 222.463 39.6288C222.463 40.7188 222.142 41.6752 221.5 42.4981C220.864 43.321 219.991 43.9634 218.879 44.4254C217.775 44.8802 216.501 45.1075 215.057 45.1075C212.856 45.1075 211.102 44.6492 209.795 43.7324C208.496 42.8085 207.734 41.5525 207.511 39.9645L212.047 39.7263C212.184 40.3976 212.516 40.9101 213.043 41.2638C213.57 41.6102 214.245 41.7835 215.068 41.7835C215.877 41.7835 216.526 41.6283 217.017 41.3179C217.515 41.0003 217.768 40.5925 217.775 40.0944C217.768 39.6757 217.591 39.3329 217.244 39.0658C216.898 38.7915 216.364 38.5821 215.642 38.4378L212.762 37.8639C211.138 37.5391 209.929 36.9761 209.135 36.1748C208.348 35.3736 207.954 34.3522 207.954 33.1106C207.954 32.0423 208.243 31.122 208.821 30.3496C209.405 29.5772 210.225 28.9817 211.279 28.5631C212.34 28.1444 213.581 27.9351 215.003 27.9351C217.104 27.9351 218.757 28.379 219.962 29.2669C221.175 30.1547 221.882 31.3638 222.084 32.8941ZM234.214 28.1516V31.6164H224.198V28.1516H234.214ZM226.472 24.1671H231.085V39.6721C231.085 40.098 231.15 40.43 231.28 40.6683C231.41 40.8992 231.59 41.0617 231.821 41.1555C232.059 41.2493 232.334 41.2962 232.644 41.2962C232.86 41.2962 233.077 41.2782 233.294 41.2421C233.51 41.1988 233.676 41.1663 233.792 41.1447L234.517 44.577C234.286 44.6492 233.961 44.7322 233.543 44.826C233.124 44.9271 232.615 44.9884 232.016 45.0101C230.904 45.0534 229.93 44.9054 229.093 44.5662C228.262 44.2269 227.616 43.7 227.154 42.9853C226.692 42.2707 226.465 41.3684 226.472 40.2785V24.1671ZM259.066 29.7758C258.914 29.2488 258.701 28.7832 258.427 28.379C258.153 27.9676 257.817 27.6211 257.42 27.3396C257.03 27.0508 256.583 26.8307 256.077 26.6791C255.579 26.5275 255.027 26.4517 254.421 26.4517C253.288 26.4517 252.291 26.7332 251.432 27.2962C250.581 27.8593 249.917 28.6786 249.44 29.7541C248.964 30.8224 248.726 32.1289 248.726 33.6737C248.726 35.2184 248.96 36.5321 249.429 37.6149C249.899 38.6976 250.563 39.5241 251.422 40.0944C252.281 40.6574 253.295 40.9389 254.464 40.9389C255.525 40.9389 256.431 40.7513 257.182 40.3759C257.94 39.9933 258.517 39.4556 258.914 38.7626C259.318 38.0696 259.521 37.2504 259.521 36.3048L260.473 36.4455H254.756V32.9157H264.036V35.7092C264.036 37.6582 263.624 39.3329 262.801 40.7332C261.978 42.1264 260.845 43.2019 259.401 43.9598C257.958 44.7105 256.305 45.0859 254.442 45.0859C252.364 45.0859 250.537 44.6275 248.964 43.7108C247.39 42.7868 246.163 41.4767 245.282 39.7804C244.409 38.0769 243.972 36.0557 243.972 33.717C243.972 31.9196 244.232 30.3171 244.752 28.9096C245.279 27.4948 246.015 26.2965 246.961 25.3148C247.906 24.3331 249.007 23.586 250.263 23.0735C251.519 22.561 252.88 22.3048 254.345 22.3048C255.601 22.3048 256.77 22.4888 257.853 22.857C258.936 23.2179 259.896 23.7304 260.733 24.3945C261.578 25.0586 262.267 25.849 262.801 26.7657C263.335 27.6752 263.678 28.6786 263.83 29.7758H259.066ZM267.471 44.7827V28.1516H271.942V31.0534H272.116C272.419 30.0212 272.928 29.2416 273.642 28.7147C274.357 28.1805 275.18 27.9134 276.111 27.9134C276.342 27.9134 276.591 27.9279 276.858 27.9567C277.125 27.9856 277.36 28.0253 277.562 28.0758V32.1686C277.345 32.1037 277.046 32.0459 276.663 31.9954C276.281 31.9449 275.931 31.9196 275.613 31.9196C274.934 31.9196 274.328 32.0676 273.794 32.3635C273.267 32.6523 272.848 33.0565 272.538 33.5762C272.235 34.0959 272.083 34.6951 272.083 35.3736V44.7827H267.471ZM286.687 45.1075C285.005 45.1075 283.55 44.7502 282.323 44.0356C281.103 43.3138 280.161 42.3104 279.497 41.0256C278.833 39.7335 278.501 38.2357 278.501 36.5321C278.501 34.8142 278.833 33.3127 279.497 32.0279C280.161 30.7358 281.103 29.7324 282.323 29.0178C283.55 28.296 285.005 27.9351 286.687 27.9351C288.369 27.9351 289.82 28.296 291.04 29.0178C292.267 29.7324 293.212 30.7358 293.876 32.0279C294.54 33.3127 294.872 34.8142 294.872 36.5321C294.872 38.2357 294.54 39.7335 293.876 41.0256C293.212 42.3104 292.267 43.3138 291.04 44.0356C289.82 44.7502 288.369 45.1075 286.687 45.1075ZM286.709 41.5345C287.474 41.5345 288.112 41.3179 288.625 40.8848C289.137 40.4445 289.524 39.8454 289.784 39.0874C290.051 38.3295 290.184 37.4669 290.184 36.4997C290.184 35.5324 290.051 34.6698 289.784 33.9119C289.524 33.1539 289.137 32.5548 288.625 32.1145C288.112 31.6742 287.474 31.454 286.709 31.454C285.936 31.454 285.287 31.6742 284.76 32.1145C284.24 32.5548 283.846 33.1539 283.579 33.9119C283.32 34.6698 283.19 35.5324 283.19 36.4997C283.19 37.4669 283.32 38.3295 283.579 39.0874C283.846 39.8454 284.24 40.4445 284.76 40.8848C285.287 41.3179 285.936 41.5345 286.709 41.5345ZM308.537 37.7015V28.1516H313.149V44.7827H308.721V41.7618H308.548C308.172 42.7363 307.548 43.5195 306.675 44.1114C305.808 44.7033 304.751 44.9993 303.502 44.9993C302.39 44.9993 301.412 44.7466 300.568 44.2413C299.723 43.7361 299.063 43.0178 298.586 42.0867C298.117 41.1555 297.879 40.0403 297.872 38.741V28.1516H302.484V37.9181C302.491 38.8998 302.755 39.6757 303.275 40.246C303.794 40.8162 304.491 41.1014 305.364 41.1014C305.92 41.1014 306.44 40.975 306.924 40.7224C307.407 40.4625 307.797 40.08 308.093 39.5747C308.396 39.0694 308.544 38.445 308.537 37.7015ZM316.839 51.0194V28.1516H321.386V30.9451H321.592C321.794 30.4976 322.087 30.0428 322.469 29.5809C322.859 29.1117 323.364 28.7219 323.985 28.4115C324.613 28.0939 325.393 27.9351 326.324 27.9351C327.536 27.9351 328.655 28.2527 329.68 28.8879C330.705 29.5159 331.525 30.4651 332.138 31.7355C332.752 32.9987 333.058 34.5832 333.058 36.4888C333.058 38.3439 332.759 39.9103 332.16 41.188C331.568 42.4584 330.759 43.4221 329.734 44.0789C328.717 44.7286 327.576 45.0534 326.313 45.0534C325.418 45.0534 324.656 44.9054 324.028 44.6095C323.408 44.3135 322.899 43.9418 322.502 43.4942C322.105 43.0395 321.801 42.5811 321.592 42.1191H321.451V51.0194H316.839ZM321.354 36.4672C321.354 37.4561 321.491 38.3187 321.765 39.0549C322.04 39.7912 322.437 40.3651 322.956 40.7765C323.476 41.1808 324.108 41.3829 324.851 41.3829C325.602 41.3829 326.237 41.1771 326.757 40.7657C327.277 40.347 327.67 39.7696 327.937 39.0333C328.211 38.2898 328.349 37.4344 328.349 36.4672C328.349 35.5071 328.215 34.6626 327.948 33.9335C327.681 33.2045 327.287 32.6342 326.768 32.2228C326.248 31.8113 325.609 31.6056 324.851 31.6056C324.1 31.6056 323.465 31.8041 322.946 32.2011C322.433 32.5981 322.04 33.1612 321.765 33.8902C321.491 34.6193 321.354 35.4783 321.354 36.4672Z" fill="white"/>
<path d="M156.448 80.3868C154.766 80.3868 153.312 80.0295 152.084 79.3149C150.864 78.5931 149.922 77.5897 149.258 76.3049C148.594 75.0128 148.262 73.515 148.262 71.8114C148.262 70.0935 148.594 68.592 149.258 67.3072C149.922 66.0151 150.864 65.0117 152.084 64.2971C153.312 63.5753 154.766 63.2144 156.448 63.2144C158.13 63.2144 159.581 63.5753 160.801 64.2971C162.028 65.0117 162.973 66.0151 163.637 67.3072C164.301 68.592 164.634 70.0935 164.634 71.8114C164.634 73.515 164.301 75.0128 163.637 76.3049C162.973 77.5897 162.028 78.5931 160.801 79.3149C159.581 80.0295 158.13 80.3868 156.448 80.3868ZM156.47 76.8138C157.235 76.8138 157.874 76.5972 158.386 76.1641C158.899 75.7238 159.285 75.1247 159.545 74.3667C159.812 73.6088 159.945 72.7462 159.945 71.7789C159.945 70.8117 159.812 69.9491 159.545 69.1912C159.285 68.4332 158.899 67.8341 158.386 67.3938C157.874 66.9535 157.235 66.7333 156.47 66.7333C155.697 66.7333 155.048 66.9535 154.521 67.3938C154.001 67.8341 153.607 68.4332 153.34 69.1912C153.081 69.9491 152.951 70.8117 152.951 71.7789C152.951 72.7462 153.081 73.6088 153.34 74.3667C153.607 75.1247 154.001 75.7238 154.521 76.1641C155.048 76.5972 155.697 76.8138 156.47 76.8138ZM176.576 63.4309V66.8957H166.312V63.4309H176.576ZM168.661 80.062V62.2291C168.661 61.0236 168.896 60.0239 169.365 59.2298C169.842 58.4358 170.491 57.8403 171.314 57.4433C172.137 57.0463 173.072 56.8478 174.118 56.8478C174.826 56.8478 175.472 56.9019 176.057 57.0102C176.648 57.1185 177.089 57.2159 177.378 57.3025L176.555 60.7673C176.374 60.7096 176.15 60.6555 175.883 60.6049C175.623 60.5544 175.356 60.5291 175.082 60.5291C174.404 60.5291 173.931 60.6879 173.664 61.0056C173.397 61.3159 173.263 61.7527 173.263 62.3157V80.062H168.661ZM185.693 61.7527V57.8872H203.905V61.7527H197.116V80.062H192.482V61.7527H185.693ZM211.985 80.3868C210.274 80.3868 208.802 80.0404 207.567 79.3474C206.34 78.6472 205.395 77.6583 204.731 76.3807C204.066 75.0958 203.734 73.5763 203.734 71.8223C203.734 70.1115 204.066 68.6101 204.731 67.318C205.395 66.0259 206.329 65.019 207.535 64.2971C208.748 63.5753 210.17 63.2144 211.801 63.2144C212.898 63.2144 213.92 63.3912 214.865 63.7449C215.818 64.0914 216.648 64.6147 217.355 65.3149C218.07 66.0151 218.626 66.8957 219.023 67.9568C219.42 69.0107 219.618 70.245 219.618 71.6598V72.9267H205.575V70.0682H215.277C215.277 69.4041 215.132 68.8158 214.843 68.3033C214.555 67.7908 214.154 67.3902 213.642 67.1015C213.136 66.8055 212.548 66.6575 211.877 66.6575C211.177 66.6575 210.556 66.8199 210.014 67.1448C209.48 67.4624 209.062 67.8919 208.758 68.4332C208.455 68.9674 208.3 69.5629 208.293 70.2198V72.9375C208.293 73.7604 208.444 74.4714 208.748 75.0705C209.058 75.6696 209.495 76.1316 210.058 76.4564C210.621 76.7813 211.288 76.9437 212.061 76.9437C212.573 76.9437 213.042 76.8715 213.468 76.7271C213.894 76.5828 214.259 76.3662 214.562 76.0775C214.865 75.7887 215.096 75.435 215.255 75.0164L219.521 75.2979C219.304 76.3229 218.86 77.218 218.189 77.9831C217.525 78.7411 216.666 79.333 215.612 79.7588C214.566 80.1775 213.356 80.3868 211.985 80.3868ZM230.143 80.3868C228.439 80.3868 226.974 80.0259 225.747 79.3041C224.527 78.575 223.589 77.5645 222.932 76.2724C222.282 74.9803 221.957 73.4933 221.957 71.8114C221.957 70.1079 222.286 68.6137 222.942 67.3288C223.607 66.0367 224.549 65.0298 225.768 64.3079C226.988 63.5789 228.439 63.2144 230.121 63.2144C231.572 63.2144 232.842 63.4778 233.932 64.0048C235.022 64.5317 235.885 65.2716 236.52 66.2244C237.155 67.1772 237.506 68.2961 237.57 69.581H233.218C233.095 68.7508 232.77 68.0832 232.243 67.5779C231.724 67.0654 231.041 66.8091 230.197 66.8091C229.482 66.8091 228.858 67.004 228.324 67.3938C227.797 67.7764 227.385 68.3358 227.089 69.0721C226.793 69.8083 226.645 70.6998 226.645 71.7465C226.645 72.8076 226.79 73.7099 227.079 74.4533C227.375 75.1968 227.79 75.7635 228.324 76.1533C228.858 76.5431 229.482 76.738 230.197 76.738C230.724 76.738 231.197 76.6297 231.615 76.4131C232.041 76.1966 232.391 75.8826 232.666 75.4711C232.947 75.0525 233.131 74.5508 233.218 73.9661H237.57C237.498 75.2365 237.152 76.3554 236.531 77.3226C235.917 78.2827 235.069 79.0334 233.987 79.5748C232.904 80.1161 231.623 80.3868 230.143 80.3868ZM245.136 70.4472V80.062H240.524V57.8872H245.006V66.3652H245.201C245.577 65.3835 246.183 64.6147 247.02 64.0589C247.858 63.4959 248.908 63.2144 250.171 63.2144C251.326 63.2144 252.333 63.467 253.192 63.9723C254.058 64.4704 254.729 65.1886 255.206 66.127C255.689 67.0581 255.928 68.1734 255.92 69.4727V80.062H251.308V70.2956C251.315 69.2706 251.055 68.4729 250.528 67.9027C250.009 67.3324 249.28 67.0473 248.341 67.0473C247.713 67.0473 247.157 67.1809 246.674 67.4479C246.197 67.715 245.822 68.1048 245.548 68.6173C245.281 69.1226 245.143 69.7325 245.136 70.4472ZM264.163 70.4472V80.062H259.55V63.4309H263.946V66.3652H264.141C264.509 65.3979 265.127 64.6328 265.993 64.0697C266.859 63.4995 267.909 63.2144 269.144 63.2144C270.298 63.2144 271.305 63.467 272.164 63.9723C273.023 64.4776 273.691 65.1994 274.168 66.1378C274.644 67.069 274.882 68.1806 274.882 69.4727V80.062H270.27V70.2956C270.277 69.2778 270.017 68.4838 269.49 67.9135C268.963 67.3361 268.238 67.0473 267.314 67.0473C266.693 67.0473 266.144 67.1809 265.668 67.4479C265.199 67.715 264.831 68.1048 264.564 68.6173C264.304 69.1226 264.17 69.7325 264.163 70.4472ZM286.032 80.3868C284.35 80.3868 282.895 80.0295 281.668 79.3149C280.448 78.5931 279.506 77.5897 278.842 76.3049C278.178 75.0128 277.846 73.515 277.846 71.8114C277.846 70.0935 278.178 68.592 278.842 67.3072C279.506 66.0151 280.448 65.0117 281.668 64.2971C282.895 63.5753 284.35 63.2144 286.032 63.2144C287.714 63.2144 289.165 63.5753 290.384 64.2971C291.612 65.0117 292.557 66.0151 293.221 67.3072C293.885 68.592 294.217 70.0935 294.217 71.8114C294.217 73.515 293.885 75.0128 293.221 76.3049C292.557 77.5897 291.612 78.5931 290.384 79.3149C289.165 80.0295 287.714 80.3868 286.032 80.3868ZM286.053 76.8138C286.819 76.8138 287.457 76.5972 287.97 76.1641C288.482 75.7238 288.869 75.1247 289.128 74.3667C289.396 73.6088 289.529 72.7462 289.529 71.7789C289.529 70.8117 289.396 69.9491 289.128 69.1912C288.869 68.4332 288.482 67.8341 287.97 67.3938C287.457 66.9535 286.819 66.7333 286.053 66.7333C285.281 66.7333 284.631 66.9535 284.105 67.3938C283.585 67.8341 283.191 68.4332 282.924 69.1912C282.664 69.9491 282.535 70.8117 282.535 71.7789C282.535 72.7462 282.664 73.6088 282.924 74.3667C283.191 75.1247 283.585 75.7238 284.105 76.1641C284.631 76.5972 285.281 76.8138 286.053 76.8138ZM301.829 57.8872V80.062H297.217V57.8872H301.829ZM313.038 80.3868C311.356 80.3868 309.902 80.0295 308.675 79.3149C307.455 78.5931 306.513 77.5897 305.849 76.3049C305.185 75.0128 304.853 73.515 304.853 71.8114C304.853 70.0935 305.185 68.592 305.849 67.3072C306.513 66.0151 307.455 65.0117 308.675 64.2971C309.902 63.5753 311.356 63.2144 313.038 63.2144C314.72 63.2144 316.171 63.5753 317.391 64.2971C318.618 65.0117 319.564 66.0151 320.228 67.3072C320.892 68.592 321.224 70.0935 321.224 71.8114C321.224 73.515 320.892 75.0128 320.228 76.3049C319.564 77.5897 318.618 78.5931 317.391 79.3149C316.171 80.0295 314.72 80.3868 313.038 80.3868ZM313.06 76.8138C313.825 76.8138 314.464 76.5972 314.976 76.1641C315.489 75.7238 315.875 75.1247 316.135 74.3667C316.402 73.6088 316.536 72.7462 316.536 71.7789C316.536 70.8117 316.402 69.9491 316.135 69.1912C315.875 68.4332 315.489 67.8341 314.976 67.3938C314.464 66.9535 313.825 66.7333 313.06 66.7333C312.288 66.7333 311.638 66.9535 311.111 67.3938C310.591 67.8341 310.198 68.4332 309.931 69.1912C309.671 69.9491 309.541 70.8117 309.541 71.7789C309.541 72.7462 309.671 73.6088 309.931 74.3667C310.198 75.1247 310.591 75.7238 311.111 76.1641C311.638 76.5972 312.288 76.8138 313.06 76.8138ZM331.716 86.6452C330.222 86.6452 328.94 86.4394 327.872 86.028C326.811 85.6238 325.966 85.0716 325.338 84.3714C324.71 83.6712 324.303 82.8844 324.115 82.011L328.381 81.4371C328.511 81.7692 328.717 82.0795 328.998 82.3683C329.28 82.657 329.651 82.888 330.113 83.0612C330.583 83.2417 331.153 83.3319 331.824 83.3319C332.827 83.3319 333.654 83.0865 334.304 82.5957C334.961 82.112 335.289 81.3 335.289 80.1595V77.1169H335.094C334.892 77.5789 334.589 78.0156 334.185 78.4271C333.78 78.8385 333.261 79.1742 332.625 79.434C331.99 79.6939 331.232 79.8238 330.352 79.8238C329.103 79.8238 327.966 79.5351 326.941 78.9576C325.923 78.3729 325.111 77.4814 324.505 76.2832C323.906 75.0777 323.606 73.5547 323.606 71.714C323.606 69.83 323.913 68.2564 324.526 66.9932C325.14 65.73 325.956 64.7844 326.973 64.1564C327.998 63.5284 329.121 63.2144 330.341 63.2144C331.272 63.2144 332.052 63.3732 332.68 63.6908C333.308 64.0012 333.813 64.391 334.195 64.8602C334.585 65.3221 334.885 65.7769 335.094 66.2244H335.267V63.4309H339.847V80.2244C339.847 81.6392 339.501 82.823 338.808 83.7759C338.115 84.7287 337.155 85.4433 335.928 85.9197C334.708 86.4033 333.304 86.6452 331.716 86.6452ZM331.813 76.359C332.557 76.359 333.185 76.1749 333.697 75.8068C334.217 75.4314 334.614 74.8973 334.888 74.2043C335.17 73.5041 335.311 72.6668 335.311 71.6923C335.311 70.7179 335.173 69.8733 334.899 69.1587C334.625 68.4368 334.228 67.8774 333.708 67.4804C333.188 67.0834 332.557 66.8849 331.813 66.8849C331.055 66.8849 330.417 67.0906 329.897 67.5021C329.377 67.9063 328.984 68.4693 328.717 69.1912C328.45 69.913 328.316 70.7467 328.316 71.6923C328.316 72.6524 328.45 73.4825 328.717 74.1827C328.991 74.8756 329.384 75.4134 329.897 75.796C330.417 76.1713 331.055 76.359 331.813 76.359ZM346.366 86.2987C345.781 86.2987 345.232 86.2518 344.72 86.1579C344.214 86.0713 343.796 85.9594 343.464 85.8223L344.503 82.3791C345.045 82.5451 345.532 82.6354 345.965 82.6498C346.405 82.6642 346.784 82.5632 347.102 82.3466C347.427 82.1301 347.69 81.7619 347.892 81.2422L348.163 80.5384L342.197 63.4309H347.048L350.491 75.6444H350.664L354.14 63.4309H359.023L352.559 81.8594C352.248 82.7545 351.826 83.534 351.292 84.1981C350.765 84.8694 350.097 85.3855 349.289 85.7465C348.481 86.1146 347.506 86.2987 346.366 86.2987Z" fill="white"/>
<path d="M149.239 106.948V93.6343H152.054V99.1276H157.769V93.6343H160.577V106.948H157.769V101.448H152.054V106.948H149.239ZM167.357 107.143C166.348 107.143 165.474 106.929 164.738 106.5C164.005 106.066 163.44 105.464 163.041 104.692C162.642 103.917 162.443 103.017 162.443 101.995C162.443 100.963 162.642 100.062 163.041 99.2901C163.44 98.5144 164.005 97.9119 164.738 97.4829C165.474 97.0495 166.348 96.8328 167.357 96.8328C168.367 96.8328 169.238 97.0495 169.971 97.4829C170.708 97.9119 171.275 98.5144 171.674 99.2901C172.073 100.062 172.272 100.963 172.272 101.995C172.272 103.017 172.073 103.917 171.674 104.692C171.275 105.464 170.708 106.066 169.971 106.5C169.238 106.929 168.367 107.143 167.357 107.143ZM167.37 104.998C167.83 104.998 168.213 104.868 168.521 104.608C168.829 104.344 169.061 103.984 169.217 103.529C169.377 103.074 169.457 102.556 169.457 101.975C169.457 101.394 169.377 100.876 169.217 100.421C169.061 99.9662 168.829 99.6065 168.521 99.3422C168.213 99.0778 167.83 98.9456 167.37 98.9456C166.907 98.9456 166.517 99.0778 166.2 99.3422C165.888 99.6065 165.652 99.9662 165.492 100.421C165.336 100.876 165.258 101.394 165.258 101.975C165.258 102.556 165.336 103.074 165.492 103.529C165.652 103.984 165.888 104.344 166.2 104.608C166.517 104.868 166.907 104.998 167.37 104.998ZM176.842 93.6343V106.948H174.073V93.6343H176.842ZM182.74 107.111C181.982 107.111 181.295 106.916 180.68 106.526C180.068 106.131 179.583 105.553 179.223 104.79C178.868 104.023 178.69 103.082 178.69 101.969C178.69 100.824 178.874 99.8731 179.243 99.1146C179.611 98.3518 180.101 97.7819 180.712 97.4049C181.327 97.0235 182.001 96.8328 182.734 96.8328C183.293 96.8328 183.759 96.9281 184.132 97.1188C184.509 97.3052 184.812 97.5392 185.042 97.8209C185.276 98.0983 185.453 98.3713 185.575 98.6401H185.659V93.6343H188.422V106.948H185.692V105.349H185.575C185.445 105.626 185.261 105.902 185.022 106.175C184.788 106.443 184.483 106.667 184.106 106.844C183.733 107.022 183.278 107.111 182.74 107.111ZM183.618 104.907C184.064 104.907 184.441 104.786 184.749 104.543C185.061 104.296 185.3 103.951 185.464 103.509C185.633 103.067 185.718 102.549 185.718 101.956C185.718 101.362 185.635 100.846 185.471 100.408C185.306 99.9706 185.068 99.6325 184.756 99.3942C184.444 99.1558 184.064 99.0366 183.618 99.0366C183.163 99.0366 182.779 99.1601 182.467 99.4072C182.155 99.6542 181.919 99.9966 181.759 100.434C181.598 100.872 181.518 101.379 181.518 101.956C181.518 102.536 181.598 103.05 181.759 103.496C181.923 103.938 182.16 104.285 182.467 104.536C182.779 104.783 183.163 104.907 183.618 104.907ZM190.699 106.948V96.9628H193.468V106.948H190.699ZM192.09 95.6756C191.679 95.6756 191.325 95.5391 191.031 95.2661C190.74 94.9887 190.595 94.6571 190.595 94.2714C190.595 93.89 190.74 93.5628 191.031 93.2898C191.325 93.0124 191.679 92.8737 192.09 92.8737C192.502 92.8737 192.853 93.0124 193.143 93.2898C193.438 93.5628 193.585 93.89 193.585 94.2714C193.585 94.6571 193.438 94.9887 193.143 95.2661C192.853 95.5391 192.502 95.6756 192.09 95.6756ZM198.456 101.175V106.948H195.687V96.9628H198.326V98.7246H198.443C198.664 98.1438 199.035 97.6844 199.555 97.3464C200.075 97.004 200.706 96.8328 201.447 96.8328C202.14 96.8328 202.745 96.9845 203.261 97.2879C203.776 97.5912 204.177 98.0246 204.463 98.588C204.749 99.1471 204.892 99.8146 204.892 100.59V106.948H202.123V101.084C202.127 100.473 201.971 99.9966 201.655 99.6542C201.338 99.3075 200.903 99.1341 200.348 99.1341C199.975 99.1341 199.646 99.2143 199.36 99.3747C199.078 99.535 198.857 99.769 198.697 100.077C198.541 100.38 198.461 100.746 198.456 101.175ZM211.574 110.901C210.676 110.901 209.907 110.777 209.266 110.53C208.629 110.288 208.122 109.956 207.745 109.536C207.367 109.115 207.123 108.643 207.01 108.118L209.571 107.774C209.649 107.973 209.773 108.16 209.942 108.333C210.111 108.506 210.334 108.645 210.611 108.749C210.893 108.857 211.236 108.912 211.639 108.912C212.241 108.912 212.737 108.764 213.127 108.469C213.522 108.179 213.719 107.692 213.719 107.007V105.18H213.602C213.481 105.457 213.298 105.72 213.056 105.967C212.813 106.214 212.501 106.415 212.12 106.571C211.738 106.727 211.283 106.805 210.754 106.805C210.005 106.805 209.322 106.632 208.707 106.285C208.096 105.934 207.608 105.399 207.244 104.679C206.884 103.956 206.704 103.041 206.704 101.936C206.704 100.805 206.889 99.8601 207.257 99.1016C207.625 98.3432 208.115 97.7754 208.726 97.3984C209.342 97.0213 210.016 96.8328 210.748 96.8328C211.307 96.8328 211.775 96.9281 212.152 97.1188C212.529 97.3052 212.833 97.5392 213.062 97.8209C213.296 98.0983 213.476 98.3713 213.602 98.6401H213.706V96.9628H216.456V107.046C216.456 107.895 216.248 108.606 215.832 109.178C215.416 109.75 214.839 110.179 214.102 110.465C213.37 110.756 212.527 110.901 211.574 110.901ZM211.632 104.725C212.078 104.725 212.456 104.614 212.763 104.393C213.075 104.168 213.314 103.847 213.478 103.431C213.647 103.011 213.732 102.508 213.732 101.923C213.732 101.338 213.65 100.831 213.485 100.402C213.32 99.9684 213.082 99.6325 212.77 99.3942C212.458 99.1558 212.078 99.0366 211.632 99.0366C211.177 99.0366 210.793 99.1601 210.481 99.4072C210.169 99.6499 209.933 99.9879 209.773 100.421C209.612 100.855 209.532 101.355 209.532 101.923C209.532 102.499 209.612 102.998 209.773 103.418C209.938 103.834 210.174 104.157 210.481 104.387C210.793 104.612 211.177 104.725 211.632 104.725ZM234.696 98.2955H231.848C231.796 97.9271 231.69 97.5999 231.53 97.3139C231.369 97.0235 231.164 96.7764 230.912 96.5728C230.661 96.3691 230.37 96.213 230.041 96.1047C229.716 95.9963 229.363 95.9422 228.981 95.9422C228.292 95.9422 227.692 96.1134 227.181 96.4557C226.669 96.7938 226.273 97.2879 225.991 97.938C225.709 98.5837 225.568 99.3682 225.568 100.291C225.568 101.24 225.709 102.038 225.991 102.684C226.277 103.329 226.676 103.817 227.187 104.146C227.699 104.476 228.29 104.64 228.962 104.64C229.339 104.64 229.688 104.591 230.009 104.491C230.334 104.391 230.622 104.246 230.873 104.055C231.125 103.86 231.333 103.624 231.497 103.347C231.666 103.069 231.783 102.753 231.848 102.398L234.696 102.411C234.622 103.022 234.438 103.611 234.143 104.179C233.853 104.742 233.461 105.247 232.967 105.694C232.477 106.136 231.892 106.487 231.211 106.747C230.535 107.002 229.77 107.13 228.916 107.13C227.729 107.13 226.667 106.862 225.731 106.324C224.799 105.787 224.062 105.009 223.521 103.99C222.983 102.972 222.715 101.739 222.715 100.291C222.715 98.8394 222.988 97.6042 223.534 96.5858C224.08 95.5673 224.821 94.7915 225.757 94.2584C226.693 93.721 227.746 93.4523 228.916 93.4523C229.688 93.4523 230.403 93.5607 231.062 93.7774C231.725 93.9941 232.312 94.3104 232.823 94.7265C233.335 95.1382 233.751 95.6431 234.072 96.2412C234.397 96.8393 234.605 97.5241 234.696 98.2955ZM241.174 107.143C240.164 107.143 239.291 106.929 238.554 106.5C237.822 106.066 237.256 105.464 236.857 104.692C236.459 103.917 236.259 103.017 236.259 101.995C236.259 100.963 236.459 100.062 236.857 99.2901C237.256 98.5144 237.822 97.9119 238.554 97.4829C239.291 97.0495 240.164 96.8328 241.174 96.8328C242.184 96.8328 243.055 97.0495 243.787 97.4829C244.524 97.9119 245.092 98.5144 245.491 99.2901C245.889 100.062 246.089 100.963 246.089 101.995C246.089 103.017 245.889 103.917 245.491 104.692C245.092 105.464 244.524 106.066 243.787 106.5C243.055 106.929 242.184 107.143 241.174 107.143ZM241.187 104.998C241.646 104.998 242.03 104.868 242.338 104.608C242.645 104.344 242.877 103.984 243.033 103.529C243.194 103.074 243.274 102.556 243.274 101.975C243.274 101.394 243.194 100.876 243.033 100.421C242.877 99.9662 242.645 99.6065 242.338 99.3422C242.03 99.0778 241.646 98.9456 241.187 98.9456C240.723 98.9456 240.333 99.0778 240.017 99.3422C239.705 99.6065 239.469 99.9662 239.308 100.421C239.152 100.876 239.074 101.394 239.074 101.975C239.074 102.556 239.152 103.074 239.308 103.529C239.469 103.984 239.705 104.344 240.017 104.608C240.333 104.868 240.723 104.998 241.187 104.998ZM247.889 106.948V96.9628H250.529V98.7246H250.646C250.854 98.1395 251.201 97.6779 251.686 97.3399C252.171 97.0018 252.752 96.8328 253.428 96.8328C254.113 96.8328 254.696 97.004 255.177 97.3464C255.658 97.6844 255.979 98.1438 256.139 98.7246H256.243C256.447 98.1525 256.815 97.6952 257.348 97.3529C257.886 97.0061 258.521 96.8328 259.253 96.8328C260.185 96.8328 260.941 97.1297 261.522 97.7234C262.107 98.3128 262.399 99.1493 262.399 100.233V106.948H259.637V100.779C259.637 100.224 259.489 99.8081 259.195 99.5307C258.9 99.2533 258.531 99.1146 258.089 99.1146C257.587 99.1146 257.194 99.275 256.913 99.5957C256.631 99.9121 256.49 100.33 256.49 100.85V106.948H253.805V100.72C253.805 100.231 253.664 99.8406 253.383 99.5502C253.105 99.2598 252.739 99.1146 252.284 99.1146C251.976 99.1146 251.699 99.1926 251.452 99.3487C251.209 99.5003 251.016 99.7149 250.873 99.9922C250.73 100.265 250.659 100.586 250.659 100.954V106.948H247.889ZM264.587 110.693V96.9628H267.317V98.6401H267.441C267.562 98.3713 267.738 98.0983 267.968 97.8209C268.202 97.5392 268.505 97.3052 268.878 97.1188C269.255 96.9281 269.723 96.8328 270.282 96.8328C271.01 96.8328 271.682 97.0235 272.297 97.4049C272.913 97.7819 273.404 98.3518 273.773 99.1146C274.141 99.8731 274.325 100.824 274.325 101.969C274.325 103.082 274.146 104.023 273.786 104.79C273.43 105.553 272.945 106.131 272.33 106.526C271.719 106.916 271.034 107.111 270.275 107.111C269.738 107.111 269.281 107.022 268.904 106.844C268.531 106.667 268.225 106.443 267.987 106.175C267.749 105.902 267.567 105.626 267.441 105.349H267.356V110.693H264.587ZM267.298 101.956C267.298 102.549 267.38 103.067 267.545 103.509C267.71 103.951 267.948 104.296 268.26 104.543C268.572 104.786 268.951 104.907 269.398 104.907C269.848 104.907 270.23 104.783 270.542 104.536C270.854 104.285 271.09 103.938 271.251 103.496C271.415 103.05 271.498 102.536 271.498 101.956C271.498 101.379 271.417 100.872 271.257 100.434C271.097 99.9966 270.86 99.6542 270.548 99.4072C270.236 99.1601 269.853 99.0366 269.398 99.0366C268.947 99.0366 268.566 99.1558 268.254 99.3942C267.946 99.6325 267.71 99.9706 267.545 100.408C267.38 100.846 267.298 101.362 267.298 101.956ZM279.019 107.137C278.382 107.137 277.814 107.026 277.316 106.805C276.817 106.58 276.423 106.248 276.133 105.811C275.847 105.369 275.704 104.818 275.704 104.159C275.704 103.605 275.805 103.139 276.009 102.762C276.213 102.385 276.49 102.081 276.841 101.852C277.192 101.622 277.591 101.448 278.037 101.331C278.488 101.214 278.961 101.132 279.455 101.084C280.035 101.024 280.503 100.967 280.859 100.915C281.214 100.859 281.472 100.777 281.632 100.668C281.793 100.56 281.873 100.4 281.873 100.187V100.148C281.873 99.7365 281.743 99.418 281.483 99.1926C281.227 98.9673 280.863 98.8546 280.391 98.8546C279.892 98.8546 279.496 98.9651 279.201 99.1861C278.906 99.4028 278.711 99.6759 278.616 100.005L276.055 99.7972C276.185 99.1905 276.44 98.6661 276.822 98.224C277.203 97.7776 277.695 97.4352 278.298 97.1968C278.904 96.9541 279.606 96.8328 280.404 96.8328C280.959 96.8328 281.489 96.8978 281.997 97.0278C282.508 97.1578 282.961 97.3594 283.355 97.6324C283.754 97.9054 284.068 98.2565 284.298 98.6856C284.528 99.1103 284.642 99.6195 284.642 100.213V106.948H282.016V105.564H281.938C281.778 105.876 281.563 106.151 281.294 106.389C281.026 106.623 280.703 106.807 280.326 106.942C279.949 107.072 279.513 107.137 279.019 107.137ZM279.812 105.225C280.22 105.225 280.579 105.145 280.891 104.985C281.203 104.82 281.448 104.599 281.626 104.322C281.804 104.044 281.893 103.73 281.893 103.379V102.32C281.806 102.376 281.687 102.428 281.535 102.476C281.388 102.519 281.221 102.56 281.034 102.599C280.848 102.634 280.662 102.666 280.475 102.697C280.289 102.723 280.12 102.746 279.968 102.768C279.643 102.816 279.359 102.892 279.117 102.996C278.874 103.1 278.685 103.241 278.551 103.418C278.417 103.592 278.35 103.808 278.35 104.068C278.35 104.445 278.486 104.734 278.759 104.933C279.036 105.128 279.388 105.225 279.812 105.225ZM289.56 101.175V106.948H286.791V96.9628H289.43V98.7246H289.547C289.768 98.1438 290.139 97.6844 290.659 97.3464C291.179 97.004 291.81 96.8328 292.551 96.8328C293.244 96.8328 293.849 96.9845 294.365 97.2879C294.88 97.5912 295.281 98.0246 295.567 98.588C295.853 99.1471 295.996 99.8146 295.996 100.59V106.948H293.227V101.084C293.231 100.473 293.075 99.9966 292.759 99.6542C292.442 99.3075 292.007 99.1341 291.452 99.1341C291.079 99.1341 290.75 99.2143 290.464 99.3747C290.182 99.535 289.961 99.769 289.801 100.077C289.645 100.38 289.565 100.746 289.56 101.175ZM298.179 106.948V96.9628H300.948V106.948H298.179ZM299.57 95.6756C299.158 95.6756 298.805 95.5391 298.511 95.2661C298.22 94.9887 298.075 94.6571 298.075 94.2714C298.075 93.89 298.22 93.5628 298.511 93.2898C298.805 93.0124 299.158 92.8737 299.57 92.8737C299.982 92.8737 300.333 93.0124 300.623 93.2898C300.918 93.5628 301.065 93.89 301.065 94.2714C301.065 94.6571 300.918 94.9887 300.623 95.2661C300.333 95.5391 299.982 95.6756 299.57 95.6756ZM307.717 107.143C306.69 107.143 305.806 106.935 305.065 106.519C304.328 106.099 303.761 105.505 303.362 104.738C302.963 103.966 302.764 103.054 302.764 102.001C302.764 100.974 302.963 100.072 303.362 99.2966C303.761 98.5209 304.322 97.9163 305.046 97.4829C305.774 97.0495 306.627 96.8328 307.607 96.8328C308.266 96.8328 308.879 96.939 309.447 97.1513C310.019 97.3594 310.517 97.6736 310.942 98.094C311.371 98.5144 311.705 99.0431 311.943 99.6802C312.181 100.313 312.301 101.054 312.301 101.904V102.664H303.869V100.948H309.694C309.694 100.549 309.607 100.196 309.434 99.8882C309.26 99.5805 309.02 99.34 308.712 99.1666C308.409 98.9889 308.056 98.9001 307.652 98.9001C307.232 98.9001 306.859 98.9976 306.534 99.1926C306.214 99.3833 305.962 99.6412 305.78 99.9662C305.598 100.287 305.505 100.645 305.501 101.039V102.671C305.501 103.165 305.592 103.592 305.774 103.951C305.96 104.311 306.222 104.588 306.56 104.783C306.898 104.978 307.299 105.076 307.763 105.076C308.071 105.076 308.352 105.033 308.608 104.946C308.864 104.859 309.083 104.729 309.265 104.556C309.447 104.383 309.585 104.17 309.681 103.919L312.242 104.088C312.112 104.703 311.846 105.241 311.443 105.7C311.044 106.155 310.528 106.511 309.895 106.766C309.267 107.018 308.541 107.143 307.717 107.143ZM322.416 99.8102L319.881 99.9662C319.837 99.7495 319.744 99.5545 319.601 99.3812C319.458 99.2035 319.27 99.0626 319.036 98.9586C318.806 98.8502 318.531 98.7961 318.21 98.7961C317.781 98.7961 317.419 98.8871 317.124 99.0691C316.83 99.2468 316.682 99.4852 316.682 99.7842C316.682 100.023 316.778 100.224 316.968 100.389C317.159 100.553 317.486 100.686 317.95 100.785L319.757 101.149C320.728 101.349 321.452 101.669 321.929 102.112C322.405 102.554 322.644 103.134 322.644 103.854C322.644 104.508 322.451 105.082 322.065 105.577C321.684 106.071 321.159 106.456 320.492 106.734C319.829 107.007 319.064 107.143 318.197 107.143C316.875 107.143 315.822 106.868 315.038 106.318C314.257 105.763 313.8 105.009 313.666 104.055L316.39 103.912C316.472 104.315 316.671 104.623 316.988 104.835C317.304 105.043 317.709 105.147 318.203 105.147C318.689 105.147 319.079 105.054 319.374 104.868C319.673 104.677 319.824 104.432 319.829 104.133C319.824 103.882 319.718 103.676 319.51 103.516C319.302 103.351 318.981 103.225 318.548 103.139L316.819 102.794C315.844 102.599 315.118 102.261 314.641 101.78C314.169 101.299 313.932 100.686 313.932 99.9402C313.932 99.2988 314.106 98.7462 314.452 98.2825C314.804 97.8188 315.295 97.4612 315.928 97.2098C316.565 96.9585 317.311 96.8328 318.164 96.8328C319.426 96.8328 320.418 97.0993 321.142 97.6324C321.87 98.1655 322.295 98.8914 322.416 99.8102Z" fill="#32DAC3"/>
<path fill-rule="evenodd" clip-rule="evenodd" d="M0.566528 107.124V98.1147H116.468V107.124C116.468 111.167 113.168 114.467 109.124 114.467H7.91208C3.86855 114.467 0.568406 111.167 0.568406 107.124H0.566528Z" fill="#32DAC3"/>
<path fill-rule="evenodd" clip-rule="evenodd" d="M58.5177 81.7627H116.467V98.1151H58.5177V81.7627Z" fill="#32DAC3" fill-opacity="0.529412"/>
<path d="M58.5181 65.4102H0.566528V81.7626H58.5181V65.4102Z" fill="#32DAC3"/>
<path d="M116.469 49.0566H58.5177V65.4091H116.469V49.0566Z" fill="#32DAC3"/>
<path fill-rule="evenodd" clip-rule="evenodd" d="M58.5177 49.057H116.467V32.7046H58.5177V49.057Z" fill="#32DAC3" fill-opacity="0.529412"/>
<path d="M58.5181 32.7046H0.566528V49.057H58.5181V32.7046Z" fill="#32DAC3"/>
<path fill-rule="evenodd" clip-rule="evenodd" d="M58.5182 16.3521H7.91216C3.86863 16.3521 0.568481 19.6522 0.568481 23.6957V32.7045H58.5182V16.3521Z" fill="#32DAC3" fill-opacity="0.529412"/>
<path fill-rule="evenodd" clip-rule="evenodd" d="M58.4993 16.3524H100.097V32.7049H116.449V16.3524V7.34367C116.449 3.29827 113.149 0 109.105 0H100.097H58.4993V16.3524Z" fill="#32DAC3"/>
</svg>
