<svg width="32" height="32" viewBox="0 0 32 32" fill="none" xmlns="http://www.w3.org/2000/svg">
<path opacity="0.2" d="M16 30.9153C7.76247 30.9153 1.08472 24.2375 1.08472 16C1.08472 24.2843 7.76247 31 16 31C24.2375 31 30.9152 24.2843 30.9152 16C30.9152 24.2375 24.2375 30.9153 16 30.9153Z" fill="#CBE1DE"/>
<path opacity="0.2" d="M16 1.08475C24.2375 1.08475 30.9152 7.7625 30.9152 16C30.9152 7.71575 24.2375 1 16 1C7.76247 1 1.08472 7.71575 1.08472 16C1.08472 7.7625 7.76247 1.08475 16 1.08475Z" fill="white"/>
<path d="M16 30.9152C24.2374 30.9152 30.9152 24.2374 30.9152 16C30.9152 7.7625 24.2374 1.08472 16 1.08472C7.7625 1.08472 1.08472 7.7625 1.08472 16C1.08472 24.2374 7.7625 30.9152 16 30.9152Z" fill="#CBE1DE"/>
<path d="M16 30.9153C24.2375 30.9153 30.9153 24.2375 30.9153 16C30.9153 15.6835 30.9043 15.3698 30.8848 15.0582L30.8818 15.0105C30.8788 14.9645 30.8764 14.9184 30.873 14.8727L30.865 14.7762C30.8627 14.7477 30.8599 14.7193 30.8574 14.6908L30.8447 14.5472C30.8434 14.5345 30.8425 14.5218 30.8413 14.5093L30.8258 14.3565L22.4209 5.95654L12.6105 15.2428L13.8008 16.3544L10.98 19.9778L12.5715 21.4935L9.58154 26.0482L14.4719 30.8379L14.4972 30.8403L14.63 30.852L14.6917 30.8575L14.7883 30.8662C14.8213 30.8688 14.854 30.8717 14.887 30.874L14.9479 30.8779C14.994 30.8812 15.0404 30.8839 15.0867 30.8867L15.1087 30.888C15.4035 30.9054 15.7007 30.9153 16 30.9153Z" fill="#6BA29A"/>
<path d="M18.358 12.4193L18.3393 12.4192L22.4208 5.95654L12.6105 15.2428H14.666L14.6612 15.249H14.666L14.0765 16.0002L10.9799 19.9777H13.5448L13.5228 20.0109H13.5448L9.58154 26.0482L19.6445 17.021H17.218L17.2247 17.0127H17.218L18.0213 15.9997L20.791 12.4775L18.3393 12.4487L18.358 12.4193Z" fill="#0B4C46"/>
<path opacity="0.2" d="M22.5538 5.74585L12.6038 15.2428H12.6104L22.4206 5.9566L22.5538 5.74585Z" fill="#CBE1DE"/>
</svg>
