<svg width="32" height="32" viewBox="0 0 32 32" fill="none" xmlns="http://www.w3.org/2000/svg">
<g clip-path="url(#clip0_250_273)">
<rect width="32" height="32" rx="16" fill="#DAF0ED"/>
<path d="M20.3269 15.0288C18.2644 16.035 17.6088 15.0706 17.0007 14.6063C16.6594 14.345 16.3982 13.9663 16.3463 13.54C16.3442 13.5051 16.3347 13.4711 16.3186 13.4401C16.3024 13.4091 16.28 13.3818 16.2527 13.36C16.2253 13.3382 16.1937 13.3224 16.1599 13.3136C16.1261 13.3047 16.0908 13.3031 16.0563 13.3088C12.9888 14.5175 12.3063 13.8025 11.8551 13.1213C11.4038 12.44 12.2401 12.3588 12.2401 12.3588L17.7401 10.7C19.1463 10.2 21.1713 11.0281 21.1713 11.0281L24.5051 17.5L19.6701 19.9863L15.2744 19.795L14.4226 16.3656" fill="#6BA29A"/>
<path d="M15.8713 23.0114C16.2007 22.5958 15.8776 22.2551 15.8145 22.1208C15.7101 22.0383 15.7407 21.8933 15.8226 21.7889C15.9045 21.6845 16.0501 21.7158 16.1976 21.7464C16.1976 21.7464 17.3682 22.5201 17.9063 22.412C17.9444 22.4 17.9815 22.3854 18.0176 22.3683C18.1758 22.3146 18.3149 22.2157 18.4176 22.0839C18.9113 21.4589 18.3801 20.9551 18.3276 20.9139C18.2238 20.8314 17.4695 20.4558 17.722 20.2495C17.7648 20.2105 17.8174 20.1838 17.8741 20.1721C17.9309 20.1605 17.9897 20.1643 18.0445 20.1833C18.0624 20.1888 18.0794 20.1968 18.0951 20.207C18.1926 20.2839 19.2488 20.9364 19.4213 21.0045C19.7076 21.1176 20.0632 21.1295 20.372 20.7389C20.9476 20.0114 20.2601 19.3826 20.1557 19.3014C20.0513 19.2201 19.1207 18.4851 19.2026 18.3814C19.2289 18.3428 19.2647 18.3114 19.3064 18.2903C19.3482 18.2692 19.3946 18.2591 19.4413 18.2608C19.4715 18.2655 19.5 18.278 19.5238 18.297C19.5693 18.3244 19.6183 18.3455 19.6695 18.3595C19.6845 18.3645 19.7038 18.3683 19.7207 18.372C19.7555 18.3817 19.7907 18.3897 19.8263 18.3958C19.9843 18.4229 20.1465 18.412 20.2995 18.3639C20.3176 18.3576 20.3351 18.3564 20.3532 18.3489C20.3713 18.3414 20.3913 18.3264 20.4107 18.317C20.5326 18.2586 20.6395 18.1731 20.7232 18.067C21.2163 17.442 20.7782 16.9276 20.3095 16.557L17.1845 14.0826C12.4195 10.8951 10.9676 10.5951 10.4688 10.3689C10.1563 10.5464 9.97258 11.9389 8.73883 13.4939C7.54571 15.0001 6.99196 15.7926 7.02508 16.072C8.63883 17.3501 7.75383 16.6495 7.75383 16.6495C8.32633 17.1026 8.45696 17.5245 9.55383 18.912C10.1932 19.6983 10.1932 19.6983 11.1301 20.4401L13.4726 22.2958C13.8207 22.5817 14.192 22.8382 14.5826 23.0626C15.4551 23.537 15.6876 23.2445 15.8713 23.0114Z" fill="#0B4C46"/>
<path d="M20.3269 15.0289C18.6632 15.4914 17.6088 15.0707 17.0007 14.6064C16.6594 14.3451 16.3982 13.9664 16.3463 13.5401C16.3442 13.5052 16.3347 13.4712 16.3186 13.4402C16.3024 13.4092 16.28 13.3819 16.2527 13.3601C16.2253 13.3383 16.1937 13.3225 16.1599 13.3137C16.1261 13.3048 16.0908 13.3032 16.0563 13.3089C12.9888 14.5176 12.3063 13.8026 11.8551 13.1214C11.4038 12.4401 12.2401 12.3589 12.2401 12.3589L17.7401 10.7001C19.1463 10.2001 22.9401 10.3626 22.9401 10.3626L24.7207 17.4876" fill="#6BA29A"/>
<path d="M4.93128 16.1295L6.43753 17.1951C6.51144 17.2479 6.5951 17.2856 6.68367 17.3059C6.77223 17.3263 6.86395 17.3288 6.95351 17.3135C7.04307 17.2981 7.1287 17.2652 7.20545 17.2165C7.2822 17.1679 7.34855 17.1045 7.40065 17.0301L11.7813 10.8426C11.8343 10.7684 11.8722 10.6844 11.8926 10.5954C11.913 10.5065 11.9156 10.4144 11.9003 10.3245C11.8849 10.2345 11.852 10.1485 11.8032 10.0714C11.7545 9.99426 11.6909 9.92755 11.6163 9.87509L10.1107 8.81259C10.0367 8.75974 9.95308 8.72206 9.86452 8.70174C9.77595 8.68142 9.68424 8.67885 9.59468 8.6942C9.50511 8.70954 9.41948 8.74249 9.34273 8.79113C9.26598 8.83977 9.19964 8.90315 9.14753 8.97759L4.76628 15.1651C4.66045 15.3149 4.61839 15.5006 4.64933 15.6814C4.68026 15.8622 4.78166 16.0233 4.93128 16.1295Z" fill="#398379"/>
<path d="M23.8374 8.82564L22.1043 9.45751C22.019 9.48849 21.9406 9.53599 21.8737 9.59727C21.8067 9.65856 21.7525 9.73244 21.7142 9.8147C21.6758 9.89695 21.654 9.98595 21.6501 10.0766C21.6461 10.1673 21.6601 10.2579 21.6912 10.3431L24.2862 17.4681C24.349 17.6404 24.4777 17.7806 24.6439 17.8579C24.8101 17.9353 25.0002 17.9435 25.1724 17.8806L26.9055 17.25C26.9908 17.219 27.0692 17.1715 27.1362 17.1102C27.2031 17.049 27.2573 16.9751 27.2957 16.8928C27.334 16.8106 27.3558 16.7216 27.3598 16.6309C27.3637 16.5402 27.3497 16.4497 27.3187 16.3644L24.7237 9.23939C24.6927 9.154 24.6452 9.07556 24.5838 9.00854C24.5225 8.94153 24.4486 8.88726 24.3663 8.84883C24.284 8.81041 24.1949 8.78858 24.1042 8.7846C24.0134 8.78062 23.9228 8.79457 23.8374 8.82564Z" fill="#0B4C46"/>
</g>
<defs>
<clipPath id="clip0_250_273">
<rect width="32" height="32" rx="16" fill="white"/>
</clipPath>
</defs>
</svg>
