<svg width="32" height="32" viewBox="0 0 32 32" fill="none" xmlns="http://www.w3.org/2000/svg">
<g clip-path="url(#clip0_250_288)">
<path d="M0.639893 0.639893H31.3599V31.3599H0.639893V0.639893Z" fill="#DAF0ED"/>
<path d="M31.3601 19.9809L21.0641 9.68778C20.8675 9.48767 20.6329 9.32884 20.3741 9.22059C20.1153 9.11234 19.8374 9.05685 19.5569 9.05738C18.3793 9.05738 17.4225 10.0142 17.4225 11.1918C17.4225 11.7582 17.6465 12.3822 18.0209 12.8654C18.0241 12.8686 18.0337 12.8782 18.0401 12.8878C18.1297 13.003 18.2321 13.1118 18.3409 13.2078L19.4769 14.347C19.2177 14.3374 18.9649 14.283 18.7185 14.1838L16.1937 11.659C15.927 11.3886 15.6091 11.1741 15.2585 11.028C14.908 10.8818 14.5319 10.807 14.1521 10.8078C12.5617 10.8078 11.2689 12.1006 11.2689 13.691C11.2689 14.6734 11.7521 15.755 12.5105 16.4334L12.4849 16.4142L13.8033 17.7326C13.1313 17.6494 12.5265 17.3262 12.0273 16.8622C9.68171 17.7294 8.00171 19.9822 8.00171 22.6254C8.00171 22.7278 8.05291 22.8142 8.12651 22.8718H8.11691L16.6049 31.3601H31.3601V19.9809Z" fill="#9CC1BC"/>
<path d="M18.0385 12.8863C18.2003 13.0968 18.3973 13.2776 18.6209 13.4207C18.9185 13.6127 19.2321 13.7119 19.5553 13.7119C20.7521 13.7119 21.6833 12.3551 21.6833 11.1903C21.6833 10.0127 20.7297 9.05591 19.5553 9.05591C18.3777 9.05591 17.4209 10.0127 17.4209 11.1903C17.4209 11.7567 17.6449 12.3807 18.0193 12.8639C18.0225 12.8671 18.0321 12.8767 18.0385 12.8863Z" fill="#0B4C46"/>
<path d="M16.264 16.8586C16.0896 17.0206 15.9069 17.163 15.7149 17.2798C15.2314 17.5934 14.6995 17.7566 14.1501 17.7566C13.3373 17.7566 12.6099 17.4046 12.0278 16.8622C9.68064 17.7287 8 19.9815 8 22.6241C8 22.8033 8.144 22.9441 8.32 22.9441H19.984C20.1632 22.9441 20.304 22.8033 20.304 22.6241C20.304 22.6017 20.304 22.5793 20.2976 22.5601C20.2701 19.9393 18.5952 17.7153 16.264 16.8586Z" fill="#0B4C46"/>
<path d="M21.4025 13.4771C20.9203 13.9999 20.2806 14.3519 19.5551 14.3519C19.11 14.3519 18.6787 14.2195 18.2739 13.9583C18.0629 13.8237 17.8707 13.6619 17.702 13.4771C17.6892 13.4831 17.6767 13.4908 17.6636 13.4969C17.6675 13.5609 17.6735 13.6246 17.6735 13.6895C17.6735 14.5791 17.3257 15.5641 16.7414 16.3324C16.735 16.3417 16.7292 16.3471 16.7231 16.3558C17.5531 16.6976 18.3068 17.201 18.9404 17.8367H23.6799C23.8559 17.8367 23.9999 17.6927 23.9999 17.5167C23.9999 15.7257 22.9334 14.1811 21.4025 13.4771Z" fill="#0B4C46"/>
<path d="M14.1503 17.1168C14.5759 17.1168 14.9919 16.9856 15.3823 16.7328C15.6767 16.5536 15.9487 16.304 16.1887 16C16.1983 15.9904 16.2079 15.9808 16.2143 15.968C16.7263 15.3056 17.0335 14.4544 17.0335 13.6896C17.0335 12.0992 15.7407 10.8064 14.1503 10.8064C12.5599 10.8064 11.2671 12.0992 11.2671 13.6896C11.2671 15.2736 12.5279 17.1168 14.1503 17.1168Z" fill="#0B4C46"/>
</g>
<defs>
<clipPath id="clip0_250_288">
<rect width="32" height="32" rx="16" fill="white"/>
</clipPath>
</defs>
</svg>
