<svg width="46" height="46" viewBox="0 0 46 46" fill="none" xmlns="http://www.w3.org/2000/svg">
<path fill-rule="evenodd" clip-rule="evenodd" d="M0 42.4625V38.892H45.9419V42.4625C45.9419 44.0656 44.6338 45.3737 43.0307 45.3737H2.91122C1.30812 45.3737 0 44.0656 0 42.4625Z" fill="#0B4C46"/>
<path fill-rule="evenodd" clip-rule="evenodd" d="M22.9712 32.4101H45.9424V38.8922H22.9712V32.4101Z" fill="#0B4C46" fill-opacity="0.529412"/>
<path d="M22.9712 25.9277H0V32.4099H22.9712V25.9277Z" fill="#0B4C46"/>
<path d="M45.9424 19.4462H22.9712V25.9284H45.9424V19.4462Z" fill="#0B4C46"/>
<path fill-rule="evenodd" clip-rule="evenodd" d="M22.9712 19.446H45.9424V12.9639H22.9712V19.446Z" fill="#0B4C46" fill-opacity="0.529412"/>
<path d="M22.9712 12.9639H0V19.446H22.9712V12.9639Z" fill="#0B4C46"/>
<path fill-rule="evenodd" clip-rule="evenodd" d="M22.9712 6.48154H2.91122C1.30812 6.48154 0 7.78966 0 9.39275V12.9632H22.9712V6.48154Z" fill="#0B4C46" fill-opacity="0.529412"/>
<path fill-rule="evenodd" clip-rule="evenodd" d="M22.9647 6.48171H39.4538V12.9634H45.9355V6.48171V2.91122C45.9355 1.30812 44.6273 0 43.0243 0H39.4538H22.9647V6.48171Z" fill="#0B4C46"/>
</svg>
